  0
SECTION
  2
HEADER
  9
$ACADVER
  1
AC1027
  9
$ACADMAINTVER
 70
105
  9
$DWGCODEPAGE
  3
ANSI_1252
  9
$LASTSAVEDBY
  1
ezdxf
  9
$REQUIREDVERSIONS
160
0
  9
$INSBASE
 10
0.0
 20
0.0
 30
0.0
  9
$EXTMIN
 10
1e+20
 20
1e+20
 30
1e+20
  9
$EXTMAX
 10
-1e+20
 20
-1e+20
 30
-1e+20
  9
$LIMMIN
 10
0.0
 20
0.0
  9
$LIMMAX
 10
420.0
 20
297.0
  9
$ORTHOMODE
 70
0
  9
$REGENMODE
 70
1
  9
$FILLMODE
 70
1
  9
$QTEXTMODE
 70
0
  9
$MIRRTEXT
 70
1
  9
$LTSCALE
 40
1.0
  9
$ATTMODE
 70
1
  9
$TEXTSIZE
 40
2.5
  9
$TRACEWID
 40
1.0
  9
$TEXTSTYLE
  7
Standard
  9
$CLAYER
  8
0
  9
$CELTYPE
  6
ByLayer
  9
$CECOLOR
 62
256
  9
$CELTSCALE
 40
1.0
  9
$DISPSILH
 70
0
  9
$DIMSCALE
 40
1.0
  9
$DIMASZ
 40
2.5
  9
$DIMEXO
 40
0.625
  9
$DIMDLI
 40
3.75
  9
$DIMRND
 40
0.0
  9
$DIMDLE
 40
0.0
  9
$DIMEXE
 40
1.25
  9
$DIMTP
 40
0.0
  9
$DIMTM
 40
0.0
  9
$DIMTXT
 40
2.5
  9
$DIMCEN
 40
2.5
  9
$DIMTSZ
 40
0.0
  9
$DIMTOL
 70
0
  9
$DIMLIM
 70
0
  9
$DIMTIH
 70
0
  9
$DIMTOH
 70
0
  9
$DIMSE1
 70
0
  9
$DIMSE2
 70
0
  9
$DIMTAD
 70
1
  9
$DIMZIN
 70
8
  9
$DIMBLK
  1

  9
$DIMASO
 70
1
  9
$DIMSHO
 70
1
  9
$DIMPOST
  1

  9
$DIMAPOST
  1

  9
$DIMALT
 70
0
  9
$DIMALTD
 70
3
  9
$DIMALTF
 40
0.03937007874
  9
$DIMLFAC
 40
1.0
  9
$DIMTOFL
 70
1
  9
$DIMTVP
 40
0.0
  9
$DIMTIX
 70
0
  9
$DIMSOXD
 70
0
  9
$DIMSAH
 70
0
  9
$DIMBLK1
  1

  9
$DIMBLK2
  1

  9
$DIMSTYLE
  2
ISO-25
  9
$DIMCLRD
 70
0
  9
$DIMCLRE
 70
0
  9
$DIMCLRT
 70
0
  9
$DIMTFAC
 40
1.0
  9
$DIMGAP
 40
0.625
  9
$DIMJUST
 70
0
  9
$DIMSD1
 70
0
  9
$DIMSD2
 70
0
  9
$DIMTOLJ
 70
0
  9
$DIMTZIN
 70
8
  9
$DIMALTZ
 70
0
  9
$DIMALTTZ
 70
0
  9
$DIMUPT
 70
0
  9
$DIMDEC
 70
2
  9
$DIMTDEC
 70
2
  9
$DIMALTU
 70
2
  9
$DIMALTTD
 70
3
  9
$DIMTXSTY
  7
Standard
  9
$DIMAUNIT
 70
0
  9
$DIMADEC
 70
0
  9
$DIMALTRND
 40
0.0
  9
$DIMAZIN
 70
0
  9
$DIMDSEP
 70
44
  9
$DIMATFIT
 70
3
  9
$DIMFRAC
 70
0
  9
$DIMLDRBLK
  1

  9
$DIMLUNIT
 70
2
  9
$DIMLWD
 70
-2
  9
$DIMLWE
 70
-2
  9
$DIMTMOVE
 70
0
  9
$DIMFXL
 40
1.0
  9
$DIMFXLON
 70
0
  9
$DIMJOGANG
 40
0.785398163397
  9
$DIMTFILL
 70
0
  9
$DIMTFILLCLR
 70
0
  9
$DIMARCSYM
 70
0
  9
$DIMLTYPE
  6

  9
$DIMLTEX1
  6

  9
$DIMLTEX2
  6

  9
$DIMTXTDIRECTION
 70
0
  9
$LUNITS
 70
2
  9
$LUPREC
 70
4
  9
$SKETCHINC
 40
1.0
  9
$FILLETRAD
 40
10.0
  9
$AUNITS
 70
0
  9
$AUPREC
 70
2
  9
$MENU
  1
.
  9
$ELEVATION
 40
0.0
  9
$PELEVATION
 40
0.0
  9
$THICKNESS
 40
0.0
  9
$LIMCHECK
 70
0
  9
$CHAMFERA
 40
0.0
  9
$CHAMFERB
 40
0.0
  9
$CHAMFERC
 40
0.0
  9
$CHAMFERD
 40
0.0
  9
$SKPOLY
 70
0
  9
$TDCREATE
 40
2461298.7834375
  9
$TDUCREATE
 40
2458532.153996898
  9
$TDUPDATE
 40
2461298.7834375
  9
$TDUUPDATE
 40
2458532.1544311
  9
$TDINDWG
 40
0.0
  9
$TDUSRTIMER
 40
0.0
  9
$USRTIMER
 70
1
  9
$ANGBASE
 50
0.0
  9
$ANGDIR
 70
0
  9
$PDMODE
 70
0
  9
$PDSIZE
 40
0.0
  9
$PLINEWID
 40
0.0
  9
$SPLFRAME
 70
0
  9
$SPLINETYPE
 70
6
  9
$SPLINESEGS
 70
8
  9
$HANDSEED
  5
180
  9
$SURFTAB1
 70
6
  9
$SURFTAB2
 70
6
  9
$SURFTYPE
 70
6
  9
$SURFU
 70
6
  9
$SURFV
 70
6
  9
$UCSBASE
  2

  9
$UCSNAME
  2

  9
$UCSORG
 10
0.0
 20
0.0
 30
0.0
  9
$UCSXDIR
 10
1.0
 20
0.0
 30
0.0
  9
$UCSYDIR
 10
0.0
 20
1.0
 30
0.0
  9
$UCSORTHOREF
  2

  9
$UCSORTHOVIEW
 70
0
  9
$UCSORGTOP
 10
0.0
 20
0.0
 30
0.0
  9
$UCSORGBOTTOM
 10
0.0
 20
0.0
 30
0.0
  9
$UCSORGLEFT
 10
0.0
 20
0.0
 30
0.0
  9
$UCSORGRIGHT
 10
0.0
 20
0.0
 30
0.0
  9
$UCSORGFRONT
 10
0.0
 20
0.0
 30
0.0
  9
$UCSORGBACK
 10
0.0
 20
0.0
 30
0.0
  9
$PUCSBASE
  2

  9
$PUCSNAME
  2

  9
$PUCSORG
 10
0.0
 20
0.0
 30
0.0
  9
$PUCSXDIR
 10
1.0
 20
0.0
 30
0.0
  9
$PUCSYDIR
 10
0.0
 20
1.0
 30
0.0
  9
$PUCSORTHOREF
  2

  9
$PUCSORTHOVIEW
 70
0
  9
$PUCSORGTOP
 10
0.0
 20
0.0
 30
0.0
  9
$PUCSORGBOTTOM
 10
0.0
 20
0.0
 30
0.0
  9
$PUCSORGLEFT
 10
0.0
 20
0.0
 30
0.0
  9
$PUCSORGRIGHT
 10
0.0
 20
0.0
 30
0.0
  9
$PUCSORGFRONT
 10
0.0
 20
0.0
 30
0.0
  9
$PUCSORGBACK
 10
0.0
 20
0.0
 30
0.0
  9
$USERI1
 70
0
  9
$USERI2
 70
0
  9
$USERI3
 70
0
  9
$USERI4
 70
0
  9
$USERI5
 70
0
  9
$USERR1
 40
0.0
  9
$USERR2
 40
0.0
  9
$USERR3
 40
0.0
  9
$USERR4
 40
0.0
  9
$USERR5
 40
0.0
  9
$WORLDVIEW
 70
1
  9
$SHADEDGE
 70
3
  9
$SHADEDIF
 70
70
  9
$TILEMODE
 70
1
  9
$MAXACTVP
 70
64
  9
$PINSBASE
 10
0.0
 20
0.0
 30
0.0
  9
$PLIMCHECK
 70
0
  9
$PEXTMIN
 10
1e+20
 20
1e+20
 30
1e+20
  9
$PEXTMAX
 10
-1e+20
 20
-1e+20
 30
-1e+20
  9
$PLIMMIN
 10
0.0
 20
0.0
  9
$PLIMMAX
 10
420.0
 20
297.0
  9
$UNITMODE
 70
0
  9
$VISRETAIN
 70
1
  9
$PLINEGEN
 70
0
  9
$PSLTSCALE
 70
1
  9
$TREEDEPTH
 70
3020
  9
$CMLSTYLE
  2
Standard
  9
$CMLJUST
 70
0
  9
$CMLSCALE
 40
20.0
  9
$PROXYGRAPHICS
 70
1
  9
$MEASUREMENT
 70
1
  9
$CELWEIGHT
370
-1
  9
$ENDCAPS
280
0
  9
$JOINSTYLE
280
0
  9
$LWDISPLAY
290
0
  9
$INSUNITS
 70
4
  9
$HYPERLINKBASE
  1

  9
$STYLESHEET
  1

  9
$XEDIT
290
1
  9
$CEPSNTYPE
380
0
  9
$PSTYLEMODE
290
1
  9
$FINGERPRINTGUID
  2
{5E95050D-FEBD-4AD0-A143-F9746A238FB7}
  9
$VERSIONGUID
  2
{884C40D2-71FA-4B19-AEE6-29052FD8105A}
  9
$EXTNAMES
290
1
  9
$PSVPSCALE
 40
0.0
  9
$OLESTARTUP
290
0
  9
$SORTENTS
280
127
  9
$INDEXCTL
280
0
  9
$HIDETEXT
280
1
  9
$XCLIPFRAME
280
1
  9
$HALOGAP
280
0
  9
$OBSCOLOR
 70
257
  9
$OBSLTYPE
280
0
  9
$INTERSECTIONDISPLAY
280
0
  9
$INTERSECTIONCOLOR
 70
257
  9
$DIMASSOC
280
2
  9
$PROJECTNAME
  1

  9
$CAMERADISPLAY
290
0
  9
$LENSLENGTH
 40
50.0
  9
$CAMERAHEIGHT
 40
0.0
  9
$STEPSPERSEC
 40
24.0
  9
$STEPSIZE
 40
100.0
  9
$3DDWFPREC
 40
2.0
  9
$PSOLWIDTH
 40
0.005
  9
$PSOLHEIGHT
 40
0.08
  9
$LOFTANG1
 40
1.570796326795
  9
$LOFTANG2
 40
1.570796326795
  9
$LOFTMAG1
 40
0.0
  9
$LOFTMAG2
 40
0.0
  9
$LOFTPARAM
 70
7
  9
$LOFTNORMALS
280
1
  9
$LATITUDE
 40
37.795
  9
$LONGITUDE
 40
-122.394
  9
$NORTHDIRECTION
 40
0.0
  9
$TIMEZONE
 70
-8000
  9
$LIGHTGLYPHDISPLAY
280
1
  9
$TILEMODELIGHTSYNCH
280
1
  9
$CMATERIAL
347
20
  9
$SOLIDHIST
280
0
  9
$SHOWHIST
280
1
  9
$DWFFRAME
280
2
  9
$DGNFRAME
280
2
  9
$REALWORLDSCALE
290
1
  9
$INTERFERECOLOR
 62
256
  9
$CSHADOW
280
0
  9
$SHADOWPLANELOCATION
 40
0.0
  0
ENDSEC
  0
SECTION
  2
CLASSES
  0
CLASS
  1
ACDBDICTIONARYWDFLT
  2
AcDbDictionaryWithDefault
  3
ObjectDBX Classes
 90
0
 91
0
280
0
281
0
  0
CLASS
  1
SUN
  2
AcDbSun
  3
SCENEOE
 90
1153
 91
0
280
0
281
0
  0
CLASS
  1
VISUALSTYLE
  2
AcDbVisualStyle
  3
ObjectDBX Classes
 90
4095
 91
0
280
0
281
0
  0
CLASS
  1
MATERIAL
  2
AcDbMaterial
  3
ObjectDBX Classes
 90
1153
 91
0
280
0
281
0
  0
CLASS
  1
SCALE
  2
AcDbScale
  3
ObjectDBX Classes
 90
1153
 91
0
280
0
281
0
  0
CLASS
  1
TABLESTYLE
  2
AcDbTableStyle
  3
ObjectDBX Classes
 90
4095
 91
0
280
0
281
0
  0
CLASS
  1
MLEADERSTYLE
  2
AcDbMLeaderStyle
  3
ACDB_MLEADERSTYLE_CLASS
 90
4095
 91
0
280
0
281
0
  0
CLASS
  1
DICTIONARYVAR
  2
AcDbDictionaryVar
  3
ObjectDBX Classes
 90
0
 91
0
280
0
281
0
  0
CLASS
  1
CELLSTYLEMAP
  2
AcDbCellStyleMap
  3
ObjectDBX Classes
 90
1152
 91
0
280
0
281
0
  0
CLASS
  1
MENTALRAYRENDERSETTINGS
  2
AcDbMentalRayRenderSettings
  3
SCENEOE
 90
1024
 91
0
280
0
281
0
  0
CLASS
  1
ACDBDETAILVIEWSTYLE
  2
AcDbDetailViewStyle
  3
ObjectDBX Classes
 90
1025
 91
0
280
0
281
0
  0
CLASS
  1
ACDBSECTIONVIEWSTYLE
  2
AcDbSectionViewStyle
  3
ObjectDBX Classes
 90
1025
 91
0
280
0
281
0
  0
CLASS
  1
RASTERVARIABLES
  2
AcDbRasterVariables
  3
ISM
 90
0
 91
0
280
0
281
0
  0
CLASS
  1
ACDBPLACEHOLDER
  2
AcDbPlaceHolder
  3
ObjectDBX Classes
 90
0
 91
0
280
0
281
0
  0
CLASS
  1
LAYOUT
  2
AcDbLayout
  3
ObjectDBX Classes
 90
0
 91
0
280
0
281
0
  0
ENDSEC
  0
SECTION
  2
TABLES
  0
TABLE
  2
VPORT
  5
8
330
0
100
AcDbSymbolTable
 70
1
  0
VPORT
  5
17C
330
8
100
AcDbSymbolTableRecord
100
AcDbViewportTableRecord
  2
*Active
 70
0
 10
0.0
 20
0.0
 11
1.0
 21
1.0
 12
42.751788947991166
 22
28.5
 13
0.0
 23
0.0
 14
0.5
 24
0.5
 15
0.5
 25
0.5
 16
0.0
 26
0.0
 36
1.0
 17
0.0
 27
0.0
 37
0.0
 40
57.0
 41
1.34
 42
50.0
 43
0.0
 44
0.0
 50
0.0
 51
0.0
 71
0
 72
1000
 73
1
 74
3
 75
0
 76
0
 77
0
 78
0
281
0
 65
1
110
0.0
120
0.0
130
0.0
111
1.0
121
0.0
131
0.0
112
0.0
122
1.0
132
0.0
 79
0
146
0.0
  0
ENDTAB
  0
TABLE
  2
LTYPE
  5
2
330
0
100
AcDbSymbolTable
 70
3
  0
LTYPE
  5
24
330
2
100
AcDbSymbolTableRecord
100
AcDbLinetypeTableRecord
  2
ByBlock
 70
0
  3

 72
65
 73
0
 40
0.0
  0
LTYPE
  5
25
330
2
100
AcDbSymbolTableRecord
100
AcDbLinetypeTableRecord
  2
ByLayer
 70
0
  3

 72
65
 73
0
 40
0.0
  0
LTYPE
  5
26
330
2
100
AcDbSymbolTableRecord
100
AcDbLinetypeTableRecord
  2
Continuous
 70
0
  3

 72
65
 73
0
 40
0.0
  0
ENDTAB
  0
TABLE
  2
LAYER
  5
1
330
0
100
AcDbSymbolTable
 70
2
  0
LAYER
  5
27
330
1
100
AcDbSymbolTableRecord
100
AcDbLayerTableRecord
  2
0
 70
0
 62
7
  6
Continuous
370
-3
390
13
347
21
  0
LAYER
  5
28
330
1
100
AcDbSymbolTableRecord
100
AcDbLayerTableRecord
  2
Defpoints
 70
0
 62
7
  6
Continuous
290
0
370
-3
390
13
347
21
  0
ENDTAB
  0
TABLE
  2
STYLE
  5
5
330
0
100
AcDbSymbolTable
 70
1
  0
STYLE
  5
29
330
5
100
AcDbSymbolTableRecord
100
AcDbTextStyleTableRecord
  2
Standard
 70
0
 40
0.0
 41
1.0
 50
0.0
 71
0
 42
2.5
  3
txt
  4

  0
ENDTAB
  0
TABLE
  2
VIEW
  5
7
330
0
100
AcDbSymbolTable
 70
0
  0
ENDTAB
  0
TABLE
  2
UCS
  5
6
330
0
100
AcDbSymbolTable
 70
0
  0
ENDTAB
  0
TABLE
  2
APPID
  5
3
330
0
100
AcDbSymbolTable
 70
3
  0
APPID
  5
2A
330
3
100
AcDbSymbolTableRecord
100
AcDbRegAppTableRecord
  2
ACAD
 70
0
  0
APPID
  5
17D
330
3
100
AcDbSymbolTableRecord
100
AcDbRegAppTableRecord
  2
HATCHBACKGROUNDCOLOR
 70
0
  0
APPID
  5
17E
330
3
100
AcDbSymbolTableRecord
100
AcDbRegAppTableRecord
  2
EZDXF
 70
0
  0
ENDTAB
  0
TABLE
  2
DIMSTYLE
  5
4
330
0
100
AcDbSymbolTable
 70
1
100
AcDbDimStyleTable
  0
DIMSTYLE
105
2B
330
4
100
AcDbSymbolTableRecord
100
AcDbDimStyleTableRecord
  2
Standard
 70
0
 40
1.0
 41
2.5
 42
0.625
 43
3.75
 44
1.25
 45
0.0
 46
0.0
 47
0.0
 48
0.0
 49
2.5
140
2.5
141
2.5
142
0.0
143
0.03937007874
144
1.0
145
0.0
146
1.0
147
0.625
148
0.0
 69
0
 70
0
 71
0
 72
0
 73
0
 74
0
 75
0
 76
0
 77
1
 78
8
 79
3
170
0
171
3
172
1
173
0
174
0
175
0
176
0
177
0
178
0
179
2
271
2
272
2
273
2
274
3
275
0
276
0
277
2
278
44
279
0
280
0
281
0
282
0
283
0
284
8
285
0
286
0
288
0
289
3
290
0
371
-2
372
-2
  0
ENDTAB
  0
TABLE
  2
BLOCK_RECORD
  5
9
330
0
100
AcDbSymbolTable
 70
2
  0
BLOCK_RECORD
  5
17
330
9
100
AcDbSymbolTableRecord
100
AcDbBlockTableRecord
  2
*Model_Space
340
1A
 70
0
280
1
281
0
  0
BLOCK_RECORD
  5
1B
330
9
100
AcDbSymbolTableRecord
100
AcDbBlockTableRecord
  2
*Paper_Space
340
1E
 70
0
280
1
281
0
  0
ENDTAB
  0
ENDSEC
  0
SECTION
  2
BLOCKS
  0
BLOCK
  5
18
330
17
100
AcDbEntity
  8
0
100
AcDbBlockBegin
  2
*Model_Space
 70
0
 10
0.0
 20
0.0
 30
0.0
  3
*Model_Space
  1

  0
ENDBLK
  5
19
330
17
100
AcDbEntity
  8
0
100
AcDbBlockEnd
  0
BLOCK
  5
1C
330
1B
100
AcDbEntity
  8
0
100
AcDbBlockBegin
  2
*Paper_Space
 70
0
 10
0.0
 20
0.0
 30
0.0
  3
*Paper_Space
  1

  0
ENDBLK
  5
1D
330
1B
100
AcDbEntity
  8
0
100
AcDbBlockEnd
  0
ENDSEC
  0
SECTION
  2
ENTITIES
  0
LINE
  5
2F
330
17
100
AcDbEntity
  8
0
100
AcDbLine
 10
0.002463110512928481
 20
16.15024830268297
 30
1.6
 11
0.014679797018611392
 21
15.903486784652218
 31
1.6
  0
LINE
  5
30
330
17
100
AcDbEntity
  8
0
100
AcDbLine
 10
0.014679797018611392
 20
15.903486784652218
 30
1.6
 11
0.05817641520546145
 21
15.611995824698615
 31
1.6
  0
LINE
  5
31
330
17
100
AcDbEntity
  8
0
100
AcDbLine
 10
0.05817641520546145
 20
15.611995824698615
 30
1.6
 11
0.12967502654520063
 21
15.327494291063212
 31
1.6
  0
LINE
  5
32
330
17
100
AcDbEntity
  8
0
100
AcDbLine
 10
0.12967502654520063
 20
15.327494291063212
 30
1.6
 11
0.2283608030224794
 21
15.051949354670032
 31
1.6
  0
LINE
  5
33
330
17
100
AcDbEntity
  8
0
100
AcDbLine
 10
0.2283608030224794
 20
15.051949354670032
 30
1.6
 11
0.35341891662194824
 21
14.787328186443098
 31
1.6
  0
LINE
  5
34
330
17
100
AcDbEntity
  8
0
100
AcDbLine
 10
0.35341891662194824
 20
14.787328186443098
 30
1.6
 11
0.5040345393282575
 21
14.535597957306432
 31
1.6
  0
LINE
  5
35
330
17
100
AcDbEntity
  8
0
100
AcDbLine
 10
0.5040345393282575
 20
14.535597957306432
 30
1.6
 11
0.6793928431260579
 21
14.298725838184058
 31
1.6
  0
LINE
  5
36
330
17
100
AcDbEntity
  8
0
100
AcDbLine
 10
0.6793928431260579
 20
14.298725838184058
 30
1.6
 11
0.8786789999999995
 21
14.078678999999998
 31
1.6
  0
LINE
  5
37
330
17
100
AcDbEntity
  8
0
100
AcDbLine
 10
0.8786789999999995
 20
14.078678999999998
 30
1.6
 11
1.0987258381840599
 21
13.879392843126055
 31
1.6
  0
LINE
  5
38
330
17
100
AcDbEntity
  8
0
100
AcDbLine
 10
1.0987258381840599
 20
13.879392843126055
 30
1.6
 11
1.335597957306434
 21
13.704034539328257
 31
1.6
  0
LINE
  5
39
330
17
100
AcDbEntity
  8
0
100
AcDbLine
 10
1.335597957306434
 20
13.704034539328257
 30
1.6
 11
1.587328186443099
 21
13.553418916621947
 31
1.6
  0
LINE
  5
3A
330
17
100
AcDbEntity
  8
0
100
AcDbLine
 10
1.587328186443099
 20
13.553418916621947
 30
1.6
 11
1.8519493546700327
 21
13.428360803022478
 31
1.6
  0
LINE
  5
3B
330
17
100
AcDbEntity
  8
0
100
AcDbLine
 10
1.8519493546700327
 20
13.428360803022478
 30
1.6
 11
2.127494291063212
 21
13.3296750265452
 31
1.6
  0
LINE
  5
3C
330
17
100
AcDbEntity
  8
0
100
AcDbLine
 10
2.127494291063212
 20
13.3296750265452
 30
1.6
 11
2.4119958246986153
 21
13.25817641520546
 31
1.6
  0
LINE
  5
3D
330
17
100
AcDbEntity
  8
0
100
AcDbLine
 10
2.4119958246986153
 20
13.25817641520546
 30
1.6
 11
2.7034867846522186
 21
13.21467979701861
 31
1.6
  0
LINE
  5
3E
330
17
100
AcDbEntity
  8
0
100
AcDbLine
 10
2.7034867846522186
 20
13.21467979701861
 30
1.6
 11
2.9502483026829736
 21
13.202463110512927
 31
1.6
  0
LINE
  5
3F
330
17
100
AcDbEntity
  8
0
100
AcDbLine
 10
2.9502483026829736
 20
13.202463110512927
 30
1.6
 11
2.9646446609406727
 21
13.235355339059327
 31
1.6
  0
LINE
  5
40
330
17
100
AcDbEntity
  8
0
100
AcDbLine
 10
2.9646446609406727
 20
13.235355339059327
 30
1.6
 11
3.0
 21
13.25
 31
1.6
  0
LINE
  5
41
330
17
100
AcDbEntity
  8
0
100
AcDbLine
 10
3.0
 20
13.25
 30
1.6
 11
3.0353553390593273
 21
13.235355339059327
 31
1.6
  0
LINE
  5
42
330
17
100
AcDbEntity
  8
0
100
AcDbLine
 10
3.0353553390593273
 20
13.235355339059327
 30
1.6
 11
3.05
 21
13.2
 31
1.6
  0
LINE
  5
43
330
17
100
AcDbEntity
  8
0
100
AcDbLine
 10
3.05
 20
13.2
 30
1.6
 11
12.45
 21
13.2
 31
1.6
  0
LINE
  5
44
330
17
100
AcDbEntity
  8
0
100
AcDbLine
 10
12.45
 20
13.2
 30
1.6
 11
12.45853921472391
 21
13.22795547546015
 31
1.6
  0
LINE
  5
45
330
17
100
AcDbEntity
  8
0
100
AcDbLine
 10
12.45853921472391
 20
13.22795547546015
 30
1.6
 11
12.480537743558257
 21
13.246070752147247
 31
1.6
  0
LINE
  5
46
330
17
100
AcDbEntity
  8
0
100
AcDbLine
 10
12.480537743558257
 20
13.246070752147247
 30
1.6
 11
12.5
 21
13.25
 31
1.6
  0
LINE
  5
47
330
17
100
AcDbEntity
  8
0
100
AcDbLine
 10
12.5
 20
13.25
 30
1.6
 11
12.52795547546015
 21
13.24146078527609
 31
1.6
  0
LINE
  5
48
330
17
100
AcDbEntity
  8
0
100
AcDbLine
 10
12.52795547546015
 20
13.24146078527609
 30
1.6
 11
12.546070752147248
 21
13.219462256441743
 31
1.6
  0
LINE
  5
49
330
17
100
AcDbEntity
  8
0
100
AcDbLine
 10
12.546070752147248
 20
13.219462256441743
 30
1.6
 11
12.55
 21
13.2
 31
1.6
  0
LINE
  5
4A
330
17
100
AcDbEntity
  8
0
100
AcDbLine
 10
12.55
 20
13.2
 30
1.6
 11
12.535355339059329
 21
13.16464466094067
 31
1.6
  0
LINE
  5
4B
330
17
100
AcDbEntity
  8
0
100
AcDbLine
 10
12.535355339059329
 20
13.16464466094067
 30
1.6
 11
20.46464466094067
 21
5.235355339059328
 31
1.6
  0
LINE
  5
4C
330
17
100
AcDbEntity
  8
0
100
AcDbLine
 10
20.46464466094067
 20
5.235355339059328
 30
1.6
 11
20.5
 21
5.250000000000001
 31
1.6
  0
LINE
  5
4D
330
17
100
AcDbEntity
  8
0
100
AcDbLine
 10
20.5
 20
5.250000000000001
 30
1.6
 11
20.519462256441745
 21
5.246070752147249
 31
1.6
  0
LINE
  5
4E
330
17
100
AcDbEntity
  8
0
100
AcDbLine
 10
20.519462256441745
 20
5.246070752147249
 30
1.6
 11
20.54146078527609
 21
5.22795547546015
 31
1.6
  0
LINE
  5
4F
330
17
100
AcDbEntity
  8
0
100
AcDbLine
 10
20.54146078527609
 20
5.22795547546015
 30
1.6
 11
20.55
 21
5.2
 31
1.6
  0
LINE
  5
50
330
17
100
AcDbEntity
  8
0
100
AcDbLine
 10
20.55
 20
5.2
 30
1.6
 11
20.546070752147248
 21
5.180537743558257
 31
1.6
  0
LINE
  5
51
330
17
100
AcDbEntity
  8
0
100
AcDbLine
 10
20.546070752147248
 20
5.180537743558257
 30
1.6
 11
20.52795547546015
 21
5.15853921472391
 31
1.6
  0
LINE
  5
52
330
17
100
AcDbEntity
  8
0
100
AcDbLine
 10
20.52795547546015
 20
5.15853921472391
 30
1.6
 11
20.5
 21
5.1499999999999995
 31
1.6
  0
LINE
  5
53
330
17
100
AcDbEntity
  8
0
100
AcDbLine
 10
20.5
 20
5.1499999999999995
 30
1.6
 11
20.5
 21
3.0500000000000007
 31
1.6
  0
LINE
  5
54
330
17
100
AcDbEntity
  8
0
100
AcDbLine
 10
20.5
 20
3.0500000000000007
 30
1.6
 11
20.53535533905933
 21
3.0353553390593278
 31
1.6
  0
LINE
  5
55
330
17
100
AcDbEntity
  8
0
100
AcDbLine
 10
20.53535533905933
 20
3.0353553390593278
 30
1.6
 11
20.55
 21
3.0
 31
1.6
  0
LINE
  5
56
330
17
100
AcDbEntity
  8
0
100
AcDbLine
 10
20.55
 20
3.0
 30
1.6
 11
20.53535533905933
 21
2.9646446609406722
 31
1.6
  0
LINE
  5
57
330
17
100
AcDbEntity
  8
0
100
AcDbLine
 10
20.53535533905933
 20
2.9646446609406722
 30
1.6
 11
20.502463110512927
 21
2.9502483026829727
 31
1.6
  0
LINE
  5
58
330
17
100
AcDbEntity
  8
0
100
AcDbLine
 10
20.502463110512927
 20
2.9502483026829727
 30
1.6
 11
20.514679797018612
 21
2.703486784652219
 31
1.6
  0
LINE
  5
59
330
17
100
AcDbEntity
  8
0
100
AcDbLine
 10
20.514679797018612
 20
2.703486784652219
 30
1.6
 11
20.558176415205462
 21
2.4119958246986157
 31
1.6
  0
LINE
  5
5A
330
17
100
AcDbEntity
  8
0
100
AcDbLine
 10
20.558176415205462
 20
2.4119958246986157
 30
1.6
 11
20.6296750265452
 21
2.127494291063213
 31
1.6
  0
LINE
  5
5B
330
17
100
AcDbEntity
  8
0
100
AcDbLine
 10
20.6296750265452
 20
2.127494291063213
 30
1.6
 11
20.72836080302248
 21
1.8519493546700336
 31
1.6
  0
LINE
  5
5C
330
17
100
AcDbEntity
  8
0
100
AcDbLine
 10
20.72836080302248
 20
1.8519493546700336
 30
1.6
 11
20.853418916621948
 21
1.5873281864431
 31
1.6
  0
LINE
  5
5D
330
17
100
AcDbEntity
  8
0
100
AcDbLine
 10
20.853418916621948
 20
1.5873281864431
 30
1.6
 11
21.004034539328256
 21
1.3355979573064345
 31
1.6
  0
LINE
  5
5E
330
17
100
AcDbEntity
  8
0
100
AcDbLine
 10
21.004034539328256
 20
1.3355979573064345
 30
1.6
 11
21.179392843126056
 21
1.0987258381840603
 31
1.6
  0
LINE
  5
5F
330
17
100
AcDbEntity
  8
0
100
AcDbLine
 10
21.179392843126056
 20
1.0987258381840603
 30
1.6
 11
21.378678999999998
 21
0.878679
 31
1.6
  0
LINE
  5
60
330
17
100
AcDbEntity
  8
0
100
AcDbLine
 10
21.378678999999998
 20
0.878679
 30
1.6
 11
21.59872583818406
 21
0.6793928431260584
 31
1.6
  0
LINE
  5
61
330
17
100
AcDbEntity
  8
0
100
AcDbLine
 10
21.59872583818406
 20
0.6793928431260584
 30
1.6
 11
21.835597957306433
 21
0.5040345393282581
 31
1.6
  0
LINE
  5
62
330
17
100
AcDbEntity
  8
0
100
AcDbLine
 10
21.835597957306433
 20
0.5040345393282581
 30
1.6
 11
22.0873281864431
 21
0.3534189166219488
 31
1.6
  0
LINE
  5
63
330
17
100
AcDbEntity
  8
0
100
AcDbLine
 10
22.0873281864431
 20
0.3534189166219488
 30
1.6
 11
22.351949354670033
 21
0.22836080302247996
 31
1.6
  0
LINE
  5
64
330
17
100
AcDbEntity
  8
0
100
AcDbLine
 10
22.351949354670033
 20
0.22836080302247996
 30
1.6
 11
22.62749429106321
 21
0.12967502654520102
 31
1.6
  0
LINE
  5
65
330
17
100
AcDbEntity
  8
0
100
AcDbLine
 10
22.62749429106321
 20
0.12967502654520102
 30
1.6
 11
22.911995824698614
 21
0.058176415205461796
 31
1.6
  0
LINE
  5
66
330
17
100
AcDbEntity
  8
0
100
AcDbLine
 10
22.911995824698614
 20
0.058176415205461796
 30
1.6
 11
23.203486784652217
 21
0.014679797018611662
 31
1.6
  0
LINE
  5
67
330
17
100
AcDbEntity
  8
0
100
AcDbLine
 10
23.203486784652217
 20
0.014679797018611662
 30
1.6
 11
23.450248302682972
 21
0.002463110512928512
 31
1.6
  0
LINE
  5
68
330
17
100
AcDbEntity
  8
0
100
AcDbLine
 10
23.450248302682972
 20
0.002463110512928512
 30
1.6
 11
23.46464466094067
 21
0.035355339059327875
 31
1.6
  0
LINE
  5
69
330
17
100
AcDbEntity
  8
0
100
AcDbLine
 10
23.46464466094067
 20
0.035355339059327875
 30
1.6
 11
23.5
 21
0.050000000000000704
 31
1.6
  0
LINE
  5
6A
330
17
100
AcDbEntity
  8
0
100
AcDbLine
 10
23.5
 20
0.050000000000000704
 30
1.6
 11
23.53535533905933
 21
0.03535533905932787
 31
1.6
  0
LINE
  5
6B
330
17
100
AcDbEntity
  8
0
100
AcDbLine
 10
23.53535533905933
 20
0.03535533905932787
 30
1.6
 11
23.55
 21
0.0
 31
1.6
  0
LINE
  5
6C
330
17
100
AcDbEntity
  8
0
100
AcDbLine
 10
23.55
 20
0.0
 30
1.6
 11
82.45
 21
0.0
 31
1.6
  0
LINE
  5
6D
330
17
100
AcDbEntity
  8
0
100
AcDbLine
 10
82.45
 20
0.0
 30
1.6
 11
82.46464466094068
 21
0.035355339059325364
 31
1.6
  0
LINE
  5
6E
330
17
100
AcDbEntity
  8
0
100
AcDbLine
 10
82.46464466094068
 20
0.035355339059325364
 30
1.6
 11
82.5
 21
0.04999999999999715
 31
1.6
  0
LINE
  5
6F
330
17
100
AcDbEntity
  8
0
100
AcDbLine
 10
82.5
 20
0.04999999999999715
 30
1.6
 11
82.53535533905932
 21
0.03535533905932536
 31
1.6
  0
LINE
  5
70
330
17
100
AcDbEntity
  8
0
100
AcDbLine
 10
82.53535533905932
 20
0.03535533905932536
 30
1.6
 11
82.54949698165031
 21
0.004989836478997133
 31
1.6
  0
LINE
  5
71
330
17
100
AcDbEntity
  8
0
100
AcDbLine
 10
82.54949698165031
 20
0.004989836478997133
 30
1.6
 11
83.10460393125207
 21
0.06095068125206162
 31
1.6
  0
LINE
  5
72
330
17
100
AcDbEntity
  8
0
100
AcDbLine
 10
83.10460393125207
 20
0.06095068125206162
 30
1.6
 11
83.66773399285951
 21
0.23575699285949858
 31
1.6
  0
LINE
  5
73
330
17
100
AcDbEntity
  8
0
100
AcDbLine
 10
83.66773399285951
 20
0.23575699285949858
 30
1.6
 11
84.1773265580372
 21
0.5123553080371859
 31
1.6
  0
LINE
  5
74
330
17
100
AcDbEntity
  8
0
100
AcDbLine
 10
84.1773265580372
 20
0.5123553080371859
 30
1.6
 11
84.621318
 21
0.8786819999999984
 31
1.6
  0
LINE
  5
75
330
17
100
AcDbEntity
  8
0
100
AcDbLine
 10
84.621318
 20
0.8786819999999984
 30
1.6
 11
84.98764469196281
 21
1.3226734419628112
 31
1.6
  0
LINE
  5
76
330
17
100
AcDbEntity
  8
0
100
AcDbLine
 10
84.98764469196281
 20
1.3226734419628112
 30
1.6
 11
85.26424300714051
 21
1.832266007140499
 31
1.6
  0
LINE
  5
77
330
17
100
AcDbEntity
  8
0
100
AcDbLine
 10
85.26424300714051
 20
1.832266007140499
 30
1.6
 11
85.43904931874793
 21
2.3953960687479374
 31
1.6
  0
LINE
  5
78
330
17
100
AcDbEntity
  8
0
100
AcDbLine
 10
85.43904931874793
 20
2.3953960687479374
 30
1.6
 11
85.495010163521
 21
2.9505030183497003
 31
1.6
  0
LINE
  5
79
330
17
100
AcDbEntity
  8
0
100
AcDbLine
 10
85.495010163521
 20
2.9505030183497003
 30
1.6
 11
85.46464466094068
 21
2.9646446609406745
 31
1.6
  0
LINE
  5
7A
330
17
100
AcDbEntity
  8
0
100
AcDbLine
 10
85.46464466094068
 20
2.9646446609406745
 30
1.6
 11
85.45
 21
3.0
 31
1.6
  0
LINE
  5
7B
330
17
100
AcDbEntity
  8
0
100
AcDbLine
 10
85.45
 20
3.0
 30
1.6
 11
85.46464466094068
 21
3.0353553390593255
 31
1.6
  0
LINE
  5
7C
330
17
100
AcDbEntity
  8
0
100
AcDbLine
 10
85.46464466094068
 20
3.0353553390593255
 30
1.6
 11
85.5
 21
3.049999999999997
 31
1.6
  0
LINE
  5
7D
330
17
100
AcDbEntity
  8
0
100
AcDbLine
 10
85.5
 20
3.049999999999997
 30
1.6
 11
85.5
 21
4.950000000000003
 31
1.6
  0
LINE
  5
7E
330
17
100
AcDbEntity
  8
0
100
AcDbLine
 10
85.5
 20
4.950000000000003
 30
1.6
 11
85.47204452453985
 21
4.9585392147239125
 31
1.6
  0
LINE
  5
7F
330
17
100
AcDbEntity
  8
0
100
AcDbLine
 10
85.47204452453985
 20
4.9585392147239125
 30
1.6
 11
85.45101582229039
 21
4.989923256032703
 31
1.6
  0
LINE
  5
80
330
17
100
AcDbEntity
  8
0
100
AcDbLine
 10
85.45101582229039
 20
4.989923256032703
 30
1.6
 11
85.45853921472391
 21
5.027955475460148
 31
1.6
  0
LINE
  5
81
330
17
100
AcDbEntity
  8
0
100
AcDbLine
 10
85.45853921472391
 20
5.027955475460148
 30
1.6
 11
85.47204452453985
 21
5.0414607852760875
 31
1.6
  0
LINE
  5
82
330
17
100
AcDbEntity
  8
0
100
AcDbLine
 10
85.47204452453985
 20
5.0414607852760875
 30
1.6
 11
85.49753688948707
 21
5.049751697317023
 31
1.6
  0
LINE
  5
83
330
17
100
AcDbEntity
  8
0
100
AcDbLine
 10
85.49753688948707
 20
5.049751697317023
 30
1.6
 11
85.48532020298138
 21
5.2965132153477805
 31
1.6
  0
LINE
  5
84
330
17
100
AcDbEntity
  8
0
100
AcDbLine
 10
85.48532020298138
 20
5.2965132153477805
 30
1.6
 11
85.44182358479453
 21
5.588004175301384
 31
1.6
  0
LINE
  5
85
330
17
100
AcDbEntity
  8
0
100
AcDbLine
 10
85.44182358479453
 20
5.588004175301384
 30
1.6
 11
85.3703249734548
 21
5.872505708936786
 31
1.6
  0
LINE
  5
86
330
17
100
AcDbEntity
  8
0
100
AcDbLine
 10
85.3703249734548
 20
5.872505708936786
 30
1.6
 11
85.27163919697752
 21
6.148050645329965
 31
1.6
  0
LINE
  5
87
330
17
100
AcDbEntity
  8
0
100
AcDbLine
 10
85.27163919697752
 20
6.148050645329965
 30
1.6
 11
85.14658108337805
 21
6.412671813556899
 31
1.6
  0
LINE
  5
88
330
17
100
AcDbEntity
  8
0
100
AcDbLine
 10
85.14658108337805
 20
6.412671813556899
 30
1.6
 11
84.99596546067174
 21
6.664402042693563
 31
1.6
  0
LINE
  5
89
330
17
100
AcDbEntity
  8
0
100
AcDbLine
 10
84.99596546067174
 20
6.664402042693563
 30
1.6
 11
84.82060715687393
 21
6.9012741618159374
 31
1.6
  0
LINE
  5
8A
330
17
100
AcDbEntity
  8
0
100
AcDbLine
 10
84.82060715687393
 20
6.9012741618159374
 30
1.6
 11
84.621321
 21
7.121320999999998
 31
1.6
  0
LINE
  5
8B
330
17
100
AcDbEntity
  8
0
100
AcDbLine
 10
84.621321
 20
7.121320999999998
 30
1.6
 11
84.40127416181593
 21
7.3206071568739395
 31
1.6
  0
LINE
  5
8C
330
17
100
AcDbEntity
  8
0
100
AcDbLine
 10
84.40127416181593
 20
7.3206071568739395
 30
1.6
 11
84.16440204269357
 21
7.49596546067174
 31
1.6
  0
LINE
  5
8D
330
17
100
AcDbEntity
  8
0
100
AcDbLine
 10
84.16440204269357
 20
7.49596546067174
 30
1.6
 11
83.9126718135569
 21
7.64658108337805
 31
1.6
  0
LINE
  5
8E
330
17
100
AcDbEntity
  8
0
100
AcDbLine
 10
83.9126718135569
 20
7.64658108337805
 30
1.6
 11
83.64805064532996
 21
7.771639196977519
 31
1.6
  0
LINE
  5
8F
330
17
100
AcDbEntity
  8
0
100
AcDbLine
 10
83.64805064532996
 20
7.771639196977519
 30
1.6
 11
83.37250570893679
 21
7.870324973454798
 31
1.6
  0
LINE
  5
90
330
17
100
AcDbEntity
  8
0
100
AcDbLine
 10
83.37250570893679
 20
7.870324973454798
 30
1.6
 11
83.08800417530138
 21
7.9418235847945375
 31
1.6
  0
LINE
  5
91
330
17
100
AcDbEntity
  8
0
100
AcDbLine
 10
83.08800417530138
 20
7.9418235847945375
 30
1.6
 11
82.79651321534779
 21
7.985320202981388
 31
1.6
  0
LINE
  5
92
330
17
100
AcDbEntity
  8
0
100
AcDbLine
 10
82.79651321534779
 20
7.985320202981388
 30
1.6
 11
82.54975169731702
 21
7.997536889487072
 31
1.6
  0
LINE
  5
93
330
17
100
AcDbEntity
  8
0
100
AcDbLine
 10
82.54975169731702
 20
7.997536889487072
 30
1.6
 11
82.54146078527609
 21
7.972044524539852
 31
1.6
  0
LINE
  5
94
330
17
100
AcDbEntity
  8
0
100
AcDbLine
 10
82.54146078527609
 20
7.972044524539852
 30
1.6
 11
82.51946225644174
 21
7.953929247852755
 31
1.6
  0
LINE
  5
95
330
17
100
AcDbEntity
  8
0
100
AcDbLine
 10
82.51946225644174
 20
7.953929247852755
 30
1.6
 11
82.5
 21
7.950000000000003
 31
1.6
  0
LINE
  5
96
330
17
100
AcDbEntity
  8
0
100
AcDbLine
 10
82.5
 20
7.950000000000003
 30
1.6
 11
82.47204452453985
 21
7.9585392147239125
 31
1.6
  0
LINE
  5
97
330
17
100
AcDbEntity
  8
0
100
AcDbLine
 10
82.47204452453985
 20
7.9585392147239125
 30
1.6
 11
82.45392924785276
 21
7.980537743558258
 31
1.6
  0
LINE
  5
98
330
17
100
AcDbEntity
  8
0
100
AcDbLine
 10
82.45392924785276
 20
7.980537743558258
 30
1.6
 11
82.45
 21
8.0
 31
1.6
  0
LINE
  5
99
330
17
100
AcDbEntity
  8
0
100
AcDbLine
 10
82.45
 20
8.0
 30
1.6
 11
82.46464466094068
 21
8.035355339059324
 31
1.6
  0
LINE
  5
9A
330
17
100
AcDbEntity
  8
0
100
AcDbLine
 10
82.46464466094068
 20
8.035355339059324
 30
1.6
 11
80.53535533905932
 21
9.964644660940676
 31
1.6
  0
LINE
  5
9B
330
17
100
AcDbEntity
  8
0
100
AcDbLine
 10
80.53535533905932
 20
9.964644660940676
 30
1.6
 11
80.5
 21
9.950000000000003
 31
1.6
  0
LINE
  5
9C
330
17
100
AcDbEntity
  8
0
100
AcDbLine
 10
80.5
 20
9.950000000000003
 30
1.6
 11
80.48053774355826
 21
9.953929247852756
 31
1.6
  0
LINE
  5
9D
330
17
100
AcDbEntity
  8
0
100
AcDbLine
 10
80.48053774355826
 20
9.953929247852756
 30
1.6
 11
80.45853921472391
 21
9.972044524539852
 31
1.6
  0
LINE
  5
9E
330
17
100
AcDbEntity
  8
0
100
AcDbLine
 10
80.45853921472391
 20
9.972044524539852
 30
1.6
 11
80.45
 21
10.0
 31
1.6
  0
LINE
  5
9F
330
17
100
AcDbEntity
  8
0
100
AcDbLine
 10
80.45
 20
10.0
 30
1.6
 11
80.45392924785276
 21
10.019462256441741
 31
1.6
  0
LINE
  5
A0
330
17
100
AcDbEntity
  8
0
100
AcDbLine
 10
80.45392924785276
 20
10.019462256441741
 30
1.6
 11
80.47204452453985
 21
10.041460785276087
 31
1.6
  0
LINE
  5
A1
330
17
100
AcDbEntity
  8
0
100
AcDbLine
 10
80.47204452453985
 20
10.041460785276087
 30
1.6
 11
80.5
 21
10.049999999999997
 31
1.6
  0
LINE
  5
A2
330
17
100
AcDbEntity
  8
0
100
AcDbLine
 10
80.5
 20
10.049999999999997
 30
1.6
 11
80.5
 21
12.960000000000003
 31
1.6
  0
LINE
  5
A3
330
17
100
AcDbEntity
  8
0
100
AcDbLine
 10
80.5
 20
12.960000000000003
 30
1.6
 11
80.47204452453985
 21
12.968539214723913
 31
1.6
  0
LINE
  5
A4
330
17
100
AcDbEntity
  8
0
100
AcDbLine
 10
80.47204452453985
 20
12.968539214723913
 30
1.6
 11
80.45392924785276
 21
12.990537743558258
 31
1.6
  0
LINE
  5
A5
330
17
100
AcDbEntity
  8
0
100
AcDbLine
 10
80.45392924785276
 20
12.990537743558258
 30
1.6
 11
80.45101582229039
 21
13.020076743967296
 31
1.6
  0
LINE
  5
A6
330
17
100
AcDbEntity
  8
0
100
AcDbLine
 10
80.45101582229039
 20
13.020076743967296
 30
1.6
 11
80.46464466094068
 21
13.045355339059324
 31
1.6
  0
LINE
  5
A7
330
17
100
AcDbEntity
  8
0
100
AcDbLine
 10
80.46464466094068
 20
13.045355339059324
 30
1.6
 11
78.54535533905933
 21
14.964644660940674
 31
1.6
  0
LINE
  5
A8
330
17
100
AcDbEntity
  8
0
100
AcDbLine
 10
78.54535533905933
 20
14.964644660940674
 30
1.6
 11
78.5200767439673
 21
14.951015822290382
 31
1.6
  0
LINE
  5
A9
330
17
100
AcDbEntity
  8
0
100
AcDbLine
 10
78.5200767439673
 20
14.951015822290382
 30
1.6
 11
78.48992325603271
 21
14.951015822290389
 31
1.6
  0
LINE
  5
AA
330
17
100
AcDbEntity
  8
0
100
AcDbLine
 10
78.48992325603271
 20
14.951015822290389
 30
1.6
 11
78.46464466094068
 21
14.964644660940674
 31
1.6
  0
LINE
  5
AB
330
17
100
AcDbEntity
  8
0
100
AcDbLine
 10
78.46464466094068
 20
14.964644660940674
 30
1.6
 11
78.45101582229039
 21
14.989923256032704
 31
1.6
  0
LINE
  5
AC
330
17
100
AcDbEntity
  8
0
100
AcDbLine
 10
78.45101582229039
 20
14.989923256032704
 30
1.6
 11
78.45853921472391
 21
15.027955475460148
 31
1.6
  0
LINE
  5
AD
330
17
100
AcDbEntity
  8
0
100
AcDbLine
 10
78.45853921472391
 20
15.027955475460148
 30
1.6
 11
78.48053774355826
 21
15.046070752147244
 31
1.6
  0
LINE
  5
AE
330
17
100
AcDbEntity
  8
0
100
AcDbLine
 10
78.48053774355826
 20
15.046070752147244
 30
1.6
 11
78.5
 21
15.049999999999997
 31
1.6
  0
LINE
  5
AF
330
17
100
AcDbEntity
  8
0
100
AcDbLine
 10
78.5
 20
15.049999999999997
 30
1.6
 11
78.5
 21
36.45
 31
1.6
  0
LINE
  5
B0
330
17
100
AcDbEntity
  8
0
100
AcDbLine
 10
78.5
 20
36.45
 30
1.6
 11
78.46464466094068
 21
36.46464466094067
 31
1.6
  0
LINE
  5
B1
330
17
100
AcDbEntity
  8
0
100
AcDbLine
 10
78.46464466094068
 20
36.46464466094067
 30
1.6
 11
78.45
 21
36.5
 31
1.6
  0
LINE
  5
B2
330
17
100
AcDbEntity
  8
0
100
AcDbLine
 10
78.45
 20
36.5
 30
1.6
 11
78.45853921472391
 21
36.527955475460146
 31
1.6
  0
LINE
  5
B3
330
17
100
AcDbEntity
  8
0
100
AcDbLine
 10
78.45853921472391
 20
36.527955475460146
 30
1.6
 11
78.48053774355826
 21
36.546070752147244
 31
1.6
  0
LINE
  5
B4
330
17
100
AcDbEntity
  8
0
100
AcDbLine
 10
78.48053774355826
 20
36.546070752147244
 30
1.6
 11
78.51007674396729
 21
36.54898417770961
 31
1.6
  0
LINE
  5
B5
330
17
100
AcDbEntity
  8
0
100
AcDbLine
 10
78.51007674396729
 20
36.54898417770961
 30
1.6
 11
78.53535533905932
 21
36.53535533905932
 31
1.6
  0
LINE
  5
B6
330
17
100
AcDbEntity
  8
0
100
AcDbLine
 10
78.53535533905932
 20
36.53535533905932
 30
1.6
 11
80.46464466094068
 21
38.46464466094068
 31
1.6
  0
LINE
  5
B7
330
17
100
AcDbEntity
  8
0
100
AcDbLine
 10
80.46464466094068
 20
38.46464466094068
 30
1.6
 11
80.45101582229039
 21
38.489923256032704
 31
1.6
  0
LINE
  5
B8
330
17
100
AcDbEntity
  8
0
100
AcDbLine
 10
80.45101582229039
 20
38.489923256032704
 30
1.6
 11
80.45392924785276
 21
38.51946225644174
 31
1.6
  0
LINE
  5
B9
330
17
100
AcDbEntity
  8
0
100
AcDbLine
 10
80.45392924785276
 20
38.51946225644174
 30
1.6
 11
80.47204452453985
 21
38.54146078527609
 31
1.6
  0
LINE
  5
BA
330
17
100
AcDbEntity
  8
0
100
AcDbLine
 10
80.47204452453985
 20
38.54146078527609
 30
1.6
 11
80.5
 21
38.55
 31
1.6
  0
LINE
  5
BB
330
17
100
AcDbEntity
  8
0
100
AcDbLine
 10
80.5
 20
38.55
 30
1.6
 11
80.5
 21
47.48986
 31
1.6
  0
LINE
  5
BC
330
17
100
AcDbEntity
  8
0
100
AcDbLine
 10
80.5
 20
47.48986
 30
1.6
 11
80.48053774355826
 21
47.49378924785275
 31
1.6
  0
LINE
  5
BD
330
17
100
AcDbEntity
  8
0
100
AcDbLine
 10
80.48053774355826
 20
47.49378924785275
 30
1.6
 11
80.45853921472391
 21
47.51190452453985
 31
1.6
  0
LINE
  5
BE
330
17
100
AcDbEntity
  8
0
100
AcDbLine
 10
80.45853921472391
 20
47.51190452453985
 30
1.6
 11
80.45
 21
47.53986
 31
1.6
  0
LINE
  5
BF
330
17
100
AcDbEntity
  8
0
100
AcDbLine
 10
80.45
 20
47.53986
 30
1.6
 11
80.45392924785276
 21
47.55932225644174
 31
1.6
  0
LINE
  5
C0
330
17
100
AcDbEntity
  8
0
100
AcDbLine
 10
80.45392924785276
 20
47.55932225644174
 30
1.6
 11
80.47204452453985
 21
47.581320785276084
 31
1.6
  0
LINE
  5
C1
330
17
100
AcDbEntity
  8
0
100
AcDbLine
 10
80.47204452453985
 20
47.581320785276084
 30
1.6
 11
80.48992325603271
 21
47.58884417770961
 31
1.6
  0
LINE
  5
C2
330
17
100
AcDbEntity
  8
0
100
AcDbLine
 10
80.48992325603271
 20
47.58884417770961
 30
1.6
 11
80.51007674396729
 21
47.58884417770961
 31
1.6
  0
LINE
  5
C3
330
17
100
AcDbEntity
  8
0
100
AcDbLine
 10
80.51007674396729
 20
47.58884417770961
 30
1.6
 11
80.53425220809133
 21
47.576125505402906
 31
1.6
  0
LINE
  5
C4
330
17
100
AcDbEntity
  8
0
100
AcDbLine
 10
80.53425220809133
 20
47.576125505402906
 30
1.6
 11
82.35163779190867
 21
49.50033449459709
 31
1.6
  0
LINE
  5
C5
330
17
100
AcDbEntity
  8
0
100
AcDbLine
 10
82.35163779190867
 20
49.50033449459709
 30
1.6
 11
82.33589
 21
49.5366
 31
1.6
  0
LINE
  5
C6
330
17
100
AcDbEntity
  8
0
100
AcDbLine
 10
82.33589
 20
49.5366
 30
1.6
 11
82.33981924785276
 21
49.55606225644174
 31
1.6
  0
LINE
  5
C7
330
17
100
AcDbEntity
  8
0
100
AcDbLine
 10
82.33981924785276
 20
49.55606225644174
 30
1.6
 11
82.35793452453986
 21
49.57806078527609
 31
1.6
  0
LINE
  5
C8
330
17
100
AcDbEntity
  8
0
100
AcDbLine
 10
82.35793452453986
 20
49.57806078527609
 30
1.6
 11
82.38589
 21
49.5866
 31
1.6
  0
LINE
  5
C9
330
17
100
AcDbEntity
  8
0
100
AcDbLine
 10
82.38589
 20
49.5866
 30
1.6
 11
82.40535225644174
 21
49.582670752147244
 31
1.6
  0
LINE
  5
CA
330
17
100
AcDbEntity
  8
0
100
AcDbLine
 10
82.40535225644174
 20
49.582670752147244
 30
1.6
 11
82.42735078527609
 21
49.564555475460146
 31
1.6
  0
LINE
  5
CB
330
17
100
AcDbEntity
  8
0
100
AcDbLine
 10
82.42735078527609
 20
49.564555475460146
 30
1.6
 11
82.43512059618332
 21
49.54423232441496
 31
1.6
  0
LINE
  5
CC
330
17
100
AcDbEntity
  8
0
100
AcDbLine
 10
82.43512059618332
 20
49.54423232441496
 30
1.6
 11
83.02234594130029
 21
49.63527112317202
 31
1.6
  0
LINE
  5
CD
330
17
100
AcDbEntity
  8
0
100
AcDbLine
 10
83.02234594130029
 20
49.63527112317202
 30
1.6
 11
83.6114220965989
 21
49.84811907260802
 31
1.6
  0
LINE
  5
CE
330
17
100
AcDbEntity
  8
0
100
AcDbLine
 10
83.6114220965989
 20
49.84811907260802
 30
1.6
 11
84.14156608156806
 21
50.16291241758002
 31
1.6
  0
LINE
  5
CF
330
17
100
AcDbEntity
  8
0
100
AcDbLine
 10
84.14156608156806
 20
50.16291241758002
 30
1.6
 11
84.60122551188
 21
50.567419727360004
 31
1.6
  0
LINE
  5
D0
330
17
100
AcDbEntity
  8
0
100
AcDbLine
 10
84.60122551188
 20
50.567419727360004
 30
1.6
 11
84.97884800320693
 21
51.04940957121999
 31
1.6
  0
LINE
  5
D1
330
17
100
AcDbEntity
  8
0
100
AcDbLine
 10
84.97884800320693
 20
51.04940957121999
 30
1.6
 11
85.2628811712211
 21
51.59665051843198
 31
1.6
  0
LINE
  5
D2
330
17
100
AcDbEntity
  8
0
100
AcDbLine
 10
85.2628811712211
 20
51.59665051843198
 30
1.6
 11
85.4417726315947
 21
52.196911138267986
 31
1.6
  0
LINE
  5
D3
330
17
100
AcDbEntity
  8
0
100
AcDbLine
 10
85.4417726315947
 20
52.196911138267986
 30
1.6
 11
85.49916577063709
 21
52.788444307559146
 31
1.6
  0
LINE
  5
D4
330
17
100
AcDbEntity
  8
0
100
AcDbLine
 10
85.49916577063709
 20
52.788444307559146
 30
1.6
 11
85.46861466094067
 21
52.80260466094067
 31
1.6
  0
LINE
  5
D5
330
17
100
AcDbEntity
  8
0
100
AcDbLine
 10
85.46861466094067
 20
52.80260466094067
 30
1.6
 11
85.45397
 21
52.83796
 31
1.6
  0
LINE
  5
D6
330
17
100
AcDbEntity
  8
0
100
AcDbLine
 10
85.45397
 20
52.83796
 30
1.6
 11
85.46861466094067
 21
52.87331533905934
 31
1.6
  0
LINE
  5
D7
330
17
100
AcDbEntity
  8
0
100
AcDbLine
 10
85.46861466094067
 20
52.87331533905934
 30
1.6
 11
85.50357789598233
 21
52.887920472549226
 31
1.6
  0
LINE
  5
D8
330
17
100
AcDbEntity
  8
0
100
AcDbLine
 10
85.50357789598233
 20
52.887920472549226
 30
1.6
 11
85.50205071165959
 21
52.95020672933854
 31
1.6
  0
LINE
  5
D9
330
17
100
AcDbEntity
  8
0
100
AcDbLine
 10
85.50205071165959
 20
52.95020672933854
 30
1.6
 11
85.46464466094068
 21
52.96464466094067
 31
1.6
  0
LINE
  5
DA
330
17
100
AcDbEntity
  8
0
100
AcDbLine
 10
85.46464466094068
 20
52.96464466094067
 30
1.6
 11
85.45
 21
53.0
 31
1.6
  0
LINE
  5
DB
330
17
100
AcDbEntity
  8
0
100
AcDbLine
 10
85.45
 20
53.0
 30
1.6
 11
85.46464466094068
 21
53.03535533905933
 31
1.6
  0
LINE
  5
DC
330
17
100
AcDbEntity
  8
0
100
AcDbLine
 10
85.46464466094068
 20
53.03535533905933
 30
1.6
 11
85.5
 21
53.05
 31
1.6
  0
LINE
  5
DD
330
17
100
AcDbEntity
  8
0
100
AcDbLine
 10
85.5
 20
53.05
 30
1.6
 11
85.5
 21
53.95
 31
1.6
  0
LINE
  5
DE
330
17
100
AcDbEntity
  8
0
100
AcDbLine
 10
85.5
 20
53.95
 30
1.6
 11
85.46464466094068
 21
53.96464466094067
 31
1.6
  0
LINE
  5
DF
330
17
100
AcDbEntity
  8
0
100
AcDbLine
 10
85.46464466094068
 20
53.96464466094067
 30
1.6
 11
85.45
 21
54.0
 31
1.6
  0
LINE
  5
E0
330
17
100
AcDbEntity
  8
0
100
AcDbLine
 10
85.45
 20
54.0
 30
1.6
 11
85.46464466094068
 21
54.03535533905933
 31
1.6
  0
LINE
  5
E1
330
17
100
AcDbEntity
  8
0
100
AcDbLine
 10
85.46464466094068
 20
54.03535533905933
 30
1.6
 11
85.495010163521
 21
54.0494969816503
 31
1.6
  0
LINE
  5
E2
330
17
100
AcDbEntity
  8
0
100
AcDbLine
 10
85.495010163521
 20
54.0494969816503
 30
1.6
 11
85.43904931874793
 21
54.604603931252065
 31
1.6
  0
LINE
  5
E3
330
17
100
AcDbEntity
  8
0
100
AcDbLine
 10
85.43904931874793
 20
54.604603931252065
 30
1.6
 11
85.26424300714051
 21
55.1677339928595
 31
1.6
  0
LINE
  5
E4
330
17
100
AcDbEntity
  8
0
100
AcDbLine
 10
85.26424300714051
 20
55.1677339928595
 30
1.6
 11
84.98764469196281
 21
55.67732655803719
 31
1.6
  0
LINE
  5
E5
330
17
100
AcDbEntity
  8
0
100
AcDbLine
 10
84.98764469196281
 20
55.67732655803719
 30
1.6
 11
84.621318
 21
56.121318
 31
1.6
  0
LINE
  5
E6
330
17
100
AcDbEntity
  8
0
100
AcDbLine
 10
84.621318
 20
56.121318
 30
1.6
 11
84.1773265580372
 21
56.487644691962814
 31
1.6
  0
LINE
  5
E7
330
17
100
AcDbEntity
  8
0
100
AcDbLine
 10
84.1773265580372
 20
56.487644691962814
 30
1.6
 11
83.66773399285951
 21
56.7642430071405
 31
1.6
  0
LINE
  5
E8
330
17
100
AcDbEntity
  8
0
100
AcDbLine
 10
83.66773399285951
 20
56.7642430071405
 30
1.6
 11
83.10460393125206
 21
56.93904931874794
 31
1.6
  0
LINE
  5
E9
330
17
100
AcDbEntity
  8
0
100
AcDbLine
 10
83.10460393125206
 20
56.93904931874794
 30
1.6
 11
82.54949698165031
 21
56.995010163521
 31
1.6
  0
LINE
  5
EA
330
17
100
AcDbEntity
  8
0
100
AcDbLine
 10
82.54949698165031
 20
56.995010163521
 30
1.6
 11
82.53535533905932
 21
56.96464466094067
 31
1.6
  0
LINE
  5
EB
330
17
100
AcDbEntity
  8
0
100
AcDbLine
 10
82.53535533905932
 20
56.96464466094067
 30
1.6
 11
82.5
 21
56.95
 31
1.6
  0
LINE
  5
EC
330
17
100
AcDbEntity
  8
0
100
AcDbLine
 10
82.5
 20
56.95
 30
1.6
 11
82.46464466094068
 21
56.96464466094067
 31
1.6
  0
LINE
  5
ED
330
17
100
AcDbEntity
  8
0
100
AcDbLine
 10
82.46464466094068
 20
56.96464466094067
 30
1.6
 11
82.45
 21
57.0
 31
1.6
  0
LINE
  5
EE
330
17
100
AcDbEntity
  8
0
100
AcDbLine
 10
82.45
 20
57.0
 30
1.6
 11
41.05
 21
57.0
 31
1.6
  0
LINE
  5
EF
330
17
100
AcDbEntity
  8
0
100
AcDbLine
 10
41.05
 20
57.0
 30
1.6
 11
41.03535533905933
 21
56.96464466094067
 31
1.6
  0
LINE
  5
F0
330
17
100
AcDbEntity
  8
0
100
AcDbLine
 10
41.03535533905933
 20
56.96464466094067
 30
1.6
 11
41.0
 21
56.95
 31
1.6
  0
LINE
  5
F1
330
17
100
AcDbEntity
  8
0
100
AcDbLine
 10
41.0
 20
56.95
 30
1.6
 11
40.96464466094067
 21
56.96464466094067
 31
1.6
  0
LINE
  5
F2
330
17
100
AcDbEntity
  8
0
100
AcDbLine
 10
40.96464466094067
 20
56.96464466094067
 30
1.6
 11
40.95024830268298
 21
56.99753688948707
 31
1.6
  0
LINE
  5
F3
330
17
100
AcDbEntity
  8
0
100
AcDbLine
 10
40.95024830268298
 20
56.99753688948707
 30
1.6
 11
40.70348678465222
 21
56.98532020298139
 31
1.6
  0
LINE
  5
F4
330
17
100
AcDbEntity
  8
0
100
AcDbLine
 10
40.70348678465222
 20
56.98532020298139
 30
1.6
 11
40.411995824698614
 21
56.94182358479454
 31
1.6
  0
LINE
  5
F5
330
17
100
AcDbEntity
  8
0
100
AcDbLine
 10
40.411995824698614
 20
56.94182358479454
 30
1.6
 11
40.127494291063215
 21
56.8703249734548
 31
1.6
  0
LINE
  5
F6
330
17
100
AcDbEntity
  8
0
100
AcDbLine
 10
40.127494291063215
 20
56.8703249734548
 30
1.6
 11
39.85194935467003
 21
56.771639196977524
 31
1.6
  0
LINE
  5
F7
330
17
100
AcDbEntity
  8
0
100
AcDbLine
 10
39.85194935467003
 20
56.771639196977524
 30
1.6
 11
39.5873281864431
 21
56.64658108337805
 31
1.6
  0
LINE
  5
F8
330
17
100
AcDbEntity
  8
0
100
AcDbLine
 10
39.5873281864431
 20
56.64658108337805
 30
1.6
 11
39.33559795730643
 21
56.49596546067175
 31
1.6
  0
LINE
  5
F9
330
17
100
AcDbEntity
  8
0
100
AcDbLine
 10
39.33559795730643
 20
56.49596546067175
 30
1.6
 11
39.09872583818406
 21
56.32060715687395
 31
1.6
  0
LINE
  5
FA
330
17
100
AcDbEntity
  8
0
100
AcDbLine
 10
39.09872583818406
 20
56.32060715687395
 30
1.6
 11
38.878679
 21
56.121321
 31
1.6
  0
LINE
  5
FB
330
17
100
AcDbEntity
  8
0
100
AcDbLine
 10
38.878679
 20
56.121321
 30
1.6
 11
38.67939284312605
 21
55.90127416181594
 31
1.6
  0
LINE
  5
FC
330
17
100
AcDbEntity
  8
0
100
AcDbLine
 10
38.67939284312605
 20
55.90127416181594
 30
1.6
 11
38.50403453932825
 21
55.66440204269357
 31
1.6
  0
LINE
  5
FD
330
17
100
AcDbEntity
  8
0
100
AcDbLine
 10
38.50403453932825
 20
55.66440204269357
 30
1.6
 11
38.35341891662195
 21
55.4126718135569
 31
1.6
  0
LINE
  5
FE
330
17
100
AcDbEntity
  8
0
100
AcDbLine
 10
38.35341891662195
 20
55.4126718135569
 30
1.6
 11
38.228360803022476
 21
55.14805064532997
 31
1.6
  0
LINE
  5
FF
330
17
100
AcDbEntity
  8
0
100
AcDbLine
 10
38.228360803022476
 20
55.14805064532997
 30
1.6
 11
38.1296750265452
 21
54.872505708936785
 31
1.6
  0
LINE
  5
100
330
17
100
AcDbEntity
  8
0
100
AcDbLine
 10
38.1296750265452
 20
54.872505708936785
 30
1.6
 11
38.05817641520546
 21
54.588004175301386
 31
1.6
  0
LINE
  5
101
330
17
100
AcDbEntity
  8
0
100
AcDbLine
 10
38.05817641520546
 20
54.588004175301386
 30
1.6
 11
38.01467979701861
 21
54.29651321534778
 31
1.6
  0
LINE
  5
102
330
17
100
AcDbEntity
  8
0
100
AcDbLine
 10
38.01467979701861
 20
54.29651321534778
 30
1.6
 11
38.00246311051293
 21
54.04975169731702
 31
1.6
  0
LINE
  5
103
330
17
100
AcDbEntity
  8
0
100
AcDbLine
 10
38.00246311051293
 20
54.04975169731702
 30
1.6
 11
38.03535533905933
 21
54.03535533905933
 31
1.6
  0
LINE
  5
104
330
17
100
AcDbEntity
  8
0
100
AcDbLine
 10
38.03535533905933
 20
54.03535533905933
 30
1.6
 11
38.05
 21
54.0
 31
1.6
  0
LINE
  5
105
330
17
100
AcDbEntity
  8
0
100
AcDbLine
 10
38.05
 20
54.0
 30
1.6
 11
38.03535533905933
 21
53.96464466094067
 31
1.6
  0
LINE
  5
106
330
17
100
AcDbEntity
  8
0
100
AcDbLine
 10
38.03535533905933
 20
53.96464466094067
 30
1.6
 11
38.0
 21
53.95
 31
1.6
  0
LINE
  5
107
330
17
100
AcDbEntity
  8
0
100
AcDbLine
 10
38.0
 20
53.95
 30
1.6
 11
38.0
 21
42.55
 31
1.6
  0
LINE
  5
108
330
17
100
AcDbEntity
  8
0
100
AcDbLine
 10
38.0
 20
42.55
 30
1.6
 11
38.03535533905933
 21
42.53535533905933
 31
1.6
  0
LINE
  5
109
330
17
100
AcDbEntity
  8
0
100
AcDbLine
 10
38.03535533905933
 20
42.53535533905933
 30
1.6
 11
38.05
 21
42.5
 31
1.6
  0
LINE
  5
10A
330
17
100
AcDbEntity
  8
0
100
AcDbLine
 10
38.05
 20
42.5
 30
1.6
 11
38.03535533905933
 21
42.46464466094067
 31
1.6
  0
LINE
  5
10B
330
17
100
AcDbEntity
  8
0
100
AcDbLine
 10
38.03535533905933
 20
42.46464466094067
 30
1.6
 11
37.99753688948707
 21
42.45024830268298
 31
1.6
  0
LINE
  5
10C
330
17
100
AcDbEntity
  8
0
100
AcDbLine
 10
37.99753688948707
 20
42.45024830268298
 30
1.6
 11
37.99266010149069
 21
42.35174339232611
 31
1.6
  0
LINE
  5
10D
330
17
100
AcDbEntity
  8
0
100
AcDbLine
 10
37.99266010149069
 20
42.35174339232611
 30
1.6
 11
37.97091179239727
 21
42.20599791234931
 31
1.6
  0
LINE
  5
10E
330
17
100
AcDbEntity
  8
0
100
AcDbLine
 10
37.97091179239727
 20
42.20599791234931
 30
1.6
 11
37.9351624867274
 21
42.06374714553161
 31
1.6
  0
LINE
  5
10F
330
17
100
AcDbEntity
  8
0
100
AcDbLine
 10
37.9351624867274
 20
42.06374714553161
 30
1.6
 11
37.88581959848876
 21
41.92597467733502
 31
1.6
  0
LINE
  5
110
330
17
100
AcDbEntity
  8
0
100
AcDbLine
 10
37.88581959848876
 20
41.92597467733502
 30
1.6
 11
37.823290541689026
 21
41.79366409322155
 31
1.6
  0
LINE
  5
111
330
17
100
AcDbEntity
  8
0
100
AcDbLine
 10
37.823290541689026
 20
41.79366409322155
 30
1.6
 11
37.74798273033587
 21
41.66779897865322
 31
1.6
  0
LINE
  5
112
330
17
100
AcDbEntity
  8
0
100
AcDbLine
 10
37.74798273033587
 20
41.66779897865322
 30
1.6
 11
37.66030357843697
 21
41.54936291909203
 31
1.6
  0
LINE
  5
113
330
17
100
AcDbEntity
  8
0
100
AcDbLine
 10
37.66030357843697
 20
41.54936291909203
 30
1.6
 11
37.5606605
 21
41.4393395
 31
1.6
  0
LINE
  5
114
330
17
100
AcDbEntity
  8
0
100
AcDbLine
 10
37.5606605
 20
41.4393395
 30
1.6
 11
37.45063708090797
 21
41.33969642156303
 31
1.6
  0
LINE
  5
115
330
17
100
AcDbEntity
  8
0
100
AcDbLine
 10
37.45063708090797
 20
41.33969642156303
 30
1.6
 11
37.332201021346776
 21
41.25201726966413
 31
1.6
  0
LINE
  5
116
330
17
100
AcDbEntity
  8
0
100
AcDbLine
 10
37.332201021346776
 20
41.25201726966413
 30
1.6
 11
37.20633590677845
 21
41.176709458310974
 31
1.6
  0
LINE
  5
117
330
17
100
AcDbEntity
  8
0
100
AcDbLine
 10
37.20633590677845
 20
41.176709458310974
 30
1.6
 11
37.07402532266498
 21
41.11418040151124
 31
1.6
  0
LINE
  5
118
330
17
100
AcDbEntity
  8
0
100
AcDbLine
 10
37.07402532266498
 20
41.11418040151124
 30
1.6
 11
36.93625285446839
 21
41.0648375132726
 31
1.6
  0
LINE
  5
119
330
17
100
AcDbEntity
  8
0
100
AcDbLine
 10
36.93625285446839
 20
41.0648375132726
 30
1.6
 11
36.79400208765069
 21
41.02908820760273
 31
1.6
  0
LINE
  5
11A
330
17
100
AcDbEntity
  8
0
100
AcDbLine
 10
36.79400208765069
 20
41.02908820760273
 30
1.6
 11
36.648256607673886
 21
41.00733989850931
 31
1.6
  0
LINE
  5
11B
330
17
100
AcDbEntity
  8
0
100
AcDbLine
 10
36.648256607673886
 20
41.00733989850931
 30
1.6
 11
36.54975169731702
 21
41.00246311051293
 31
1.6
  0
LINE
  5
11C
330
17
100
AcDbEntity
  8
0
100
AcDbLine
 10
36.54975169731702
 20
41.00246311051293
 30
1.6
 11
36.53535533905933
 21
40.96464466094067
 31
1.6
  0
LINE
  5
11D
330
17
100
AcDbEntity
  8
0
100
AcDbLine
 10
36.53535533905933
 20
40.96464466094067
 30
1.6
 11
36.5
 21
40.95
 31
1.6
  0
LINE
  5
11E
330
17
100
AcDbEntity
  8
0
100
AcDbLine
 10
36.5
 20
40.95
 30
1.6
 11
36.46464466094067
 21
40.96464466094067
 31
1.6
  0
LINE
  5
11F
330
17
100
AcDbEntity
  8
0
100
AcDbLine
 10
36.46464466094067
 20
40.96464466094067
 30
1.6
 11
36.45
 21
41.0
 31
1.6
  0
LINE
  5
120
330
17
100
AcDbEntity
  8
0
100
AcDbLine
 10
36.45
 20
41.0
 30
1.6
 11
28.05
 21
41.0
 31
1.6
  0
LINE
  5
121
330
17
100
AcDbEntity
  8
0
100
AcDbLine
 10
28.05
 20
41.0
 30
1.6
 11
28.03535533905933
 21
40.96464466094067
 31
1.6
  0
LINE
  5
122
330
17
100
AcDbEntity
  8
0
100
AcDbLine
 10
28.03535533905933
 20
40.96464466094067
 30
1.6
 11
28.0
 21
40.95
 31
1.6
  0
LINE
  5
123
330
17
100
AcDbEntity
  8
0
100
AcDbLine
 10
28.0
 20
40.95
 30
1.6
 11
27.97204452453985
 21
40.95853921472391
 31
1.6
  0
LINE
  5
124
330
17
100
AcDbEntity
  8
0
100
AcDbLine
 10
27.97204452453985
 20
40.95853921472391
 30
1.6
 11
27.953929247852752
 21
40.98053774355826
 31
1.6
  0
LINE
  5
125
330
17
100
AcDbEntity
  8
0
100
AcDbLine
 10
27.953929247852752
 20
40.98053774355826
 30
1.6
 11
27.951015822290387
 21
41.010076743967296
 31
1.6
  0
LINE
  5
126
330
17
100
AcDbEntity
  8
0
100
AcDbLine
 10
27.951015822290387
 20
41.010076743967296
 30
1.6
 11
27.96464466094067
 21
41.03535533905933
 31
1.6
  0
LINE
  5
127
330
17
100
AcDbEntity
  8
0
100
AcDbLine
 10
27.96464466094067
 20
41.03535533905933
 30
1.6
 11
24.33535533905933
 21
44.664644660940674
 31
1.6
  0
LINE
  5
128
330
17
100
AcDbEntity
  8
0
100
AcDbLine
 10
24.33535533905933
 20
44.664644660940674
 30
1.6
 11
24.310076743967297
 21
44.65101582229039
 31
1.6
  0
LINE
  5
129
330
17
100
AcDbEntity
  8
0
100
AcDbLine
 10
24.310076743967297
 20
44.65101582229039
 30
1.6
 11
24.280537743558256
 21
44.65392924785276
 31
1.6
  0
LINE
  5
12A
330
17
100
AcDbEntity
  8
0
100
AcDbLine
 10
24.280537743558256
 20
44.65392924785276
 30
1.6
 11
24.25853921472391
 21
44.67204452453986
 31
1.6
  0
LINE
  5
12B
330
17
100
AcDbEntity
  8
0
100
AcDbLine
 10
24.25853921472391
 20
44.67204452453986
 30
1.6
 11
24.25
 21
44.7
 31
1.6
  0
LINE
  5
12C
330
17
100
AcDbEntity
  8
0
100
AcDbLine
 10
24.25
 20
44.7
 30
1.6
 11
21.25
 21
44.7
 31
1.6
  0
LINE
  5
12D
330
17
100
AcDbEntity
  8
0
100
AcDbLine
 10
21.25
 20
44.7
 30
1.6
 11
21.23535533905933
 21
44.664644660940674
 31
1.6
  0
LINE
  5
12E
330
17
100
AcDbEntity
  8
0
100
AcDbLine
 10
21.23535533905933
 20
44.664644660940674
 30
1.6
 11
21.2
 21
44.650000000000006
 31
1.6
  0
LINE
  5
12F
330
17
100
AcDbEntity
  8
0
100
AcDbLine
 10
21.2
 20
44.650000000000006
 30
1.6
 11
21.16464466094067
 21
44.664644660940674
 31
1.6
  0
LINE
  5
130
330
17
100
AcDbEntity
  8
0
100
AcDbLine
 10
21.16464466094067
 20
44.664644660940674
 30
1.6
 11
21.15
 21
44.7
 31
1.6
  0
LINE
  5
131
330
17
100
AcDbEntity
  8
0
100
AcDbLine
 10
21.15
 20
44.7
 30
1.6
 11
21.16464466094067
 21
44.73535533905933
 31
1.6
  0
LINE
  5
132
330
17
100
AcDbEntity
  8
0
100
AcDbLine
 10
21.16464466094067
 20
44.73535533905933
 30
1.6
 11
21.2
 21
44.75
 31
1.6
  0
LINE
  5
133
330
17
100
AcDbEntity
  8
0
100
AcDbLine
 10
21.2
 20
44.75
 30
1.6
 11
21.2
 21
50.25
 31
1.6
  0
LINE
  5
134
330
17
100
AcDbEntity
  8
0
100
AcDbLine
 10
21.2
 20
50.25
 30
1.6
 11
21.17204452453985
 21
50.25853921472391
 31
1.6
  0
LINE
  5
135
330
17
100
AcDbEntity
  8
0
100
AcDbLine
 10
21.17204452453985
 20
50.25853921472391
 30
1.6
 11
21.15392924785275
 21
50.280537743558256
 31
1.6
  0
LINE
  5
136
330
17
100
AcDbEntity
  8
0
100
AcDbLine
 10
21.15392924785275
 20
50.280537743558256
 30
1.6
 11
21.151015822290386
 21
50.310076743967294
 31
1.6
  0
LINE
  5
137
330
17
100
AcDbEntity
  8
0
100
AcDbLine
 10
21.151015822290386
 20
50.310076743967294
 30
1.6
 11
21.16464466094067
 21
50.335355339059326
 31
1.6
  0
LINE
  5
138
330
17
100
AcDbEntity
  8
0
100
AcDbLine
 10
21.16464466094067
 20
50.335355339059326
 30
1.6
 11
21.189923256032703
 21
50.34898417770961
 31
1.6
  0
LINE
  5
139
330
17
100
AcDbEntity
  8
0
100
AcDbLine
 10
21.189923256032703
 20
50.34898417770961
 30
1.6
 11
21.219462256441744
 21
50.34607075214724
 31
1.6
  0
LINE
  5
13A
330
17
100
AcDbEntity
  8
0
100
AcDbLine
 10
21.219462256441744
 20
50.34607075214724
 30
1.6
 11
21.24146078527609
 21
50.32795547546014
 31
1.6
  0
LINE
  5
13B
330
17
100
AcDbEntity
  8
0
100
AcDbLine
 10
21.24146078527609
 20
50.32795547546014
 30
1.6
 11
21.25
 21
50.3
 31
1.6
  0
LINE
  5
13C
330
17
100
AcDbEntity
  8
0
100
AcDbLine
 10
21.25
 20
50.3
 30
1.6
 11
24.95
 21
50.3
 31
1.6
  0
LINE
  5
13D
330
17
100
AcDbEntity
  8
0
100
AcDbLine
 10
24.95
 20
50.3
 30
1.6
 11
24.96464466094067
 21
50.335355339059326
 31
1.6
  0
LINE
  5
13E
330
17
100
AcDbEntity
  8
0
100
AcDbLine
 10
24.96464466094067
 20
50.335355339059326
 30
1.6
 11
25.0
 21
50.349999999999994
 31
1.6
  0
LINE
  5
13F
330
17
100
AcDbEntity
  8
0
100
AcDbLine
 10
25.0
 20
50.349999999999994
 30
1.6
 11
25.03535533905933
 21
50.335355339059326
 31
1.6
  0
LINE
  5
140
330
17
100
AcDbEntity
  8
0
100
AcDbLine
 10
25.03535533905933
 20
50.335355339059326
 30
1.6
 11
25.049496989049935
 21
50.3049897630762
 31
1.6
  0
LINE
  5
141
330
17
100
AcDbEntity
  8
0
100
AcDbLine
 10
25.049496989049935
 20
50.3049897630762
 30
1.6
 11
25.604604383631848
 21
50.36094982113185
 31
1.6
  0
LINE
  5
142
330
17
100
AcDbEntity
  8
0
100
AcDbLine
 10
25.604604383631848
 20
50.36094982113185
 30
1.6
 11
26.167734884864966
 21
50.53575563486497
 31
1.6
  0
LINE
  5
143
330
17
100
AcDbEntity
  8
0
100
AcDbLine
 10
26.167734884864966
 20
50.53575563486497
 30
1.6
 11
26.677327818665603
 21
50.8123537561656
 31
1.6
  0
LINE
  5
144
330
17
100
AcDbEntity
  8
0
100
AcDbLine
 10
26.677327818665603
 20
50.8123537561656
 30
1.6
 11
27.1213195
 21
51.1786805
 31
1.6
  0
LINE
  5
145
330
17
100
AcDbEntity
  8
0
100
AcDbLine
 10
27.1213195
 20
51.1786805
 30
1.6
 11
27.487646243834394
 21
51.622672181334394
 31
1.6
  0
LINE
  5
146
330
17
100
AcDbEntity
  8
0
100
AcDbLine
 10
27.487646243834394
 20
51.622672181334394
 30
1.6
 11
27.76424436513503
 21
52.13226511513503
 31
1.6
  0
LINE
  5
147
330
17
100
AcDbEntity
  8
0
100
AcDbLine
 10
27.76424436513503
 20
52.13226511513503
 30
1.6
 11
27.93905017886815
 21
52.695395616368145
 31
1.6
  0
LINE
  5
148
330
17
100
AcDbEntity
  8
0
100
AcDbLine
 10
27.93905017886815
 20
52.695395616368145
 30
1.6
 11
27.995010236923793
 21
53.25050301095006
 31
1.6
  0
LINE
  5
149
330
17
100
AcDbEntity
  8
0
100
AcDbLine
 10
27.995010236923793
 20
53.25050301095006
 30
1.6
 11
27.96464466094067
 21
53.26464466094067
 31
1.6
  0
LINE
  5
14A
330
17
100
AcDbEntity
  8
0
100
AcDbLine
 10
27.96464466094067
 20
53.26464466094067
 30
1.6
 11
27.95
 21
53.3
 31
1.6
  0
LINE
  5
14B
330
17
100
AcDbEntity
  8
0
100
AcDbLine
 10
27.95
 20
53.3
 30
1.6
 11
27.96464466094067
 21
53.335355339059326
 31
1.6
  0
LINE
  5
14C
330
17
100
AcDbEntity
  8
0
100
AcDbLine
 10
27.96464466094067
 20
53.335355339059326
 30
1.6
 11
28.0
 21
53.349999999999994
 31
1.6
  0
LINE
  5
14D
330
17
100
AcDbEntity
  8
0
100
AcDbLine
 10
28.0
 20
53.349999999999994
 30
1.6
 11
28.0
 21
53.95
 31
1.6
  0
LINE
  5
14E
330
17
100
AcDbEntity
  8
0
100
AcDbLine
 10
28.0
 20
53.95
 30
1.6
 11
27.96464466094067
 21
53.96464466094067
 31
1.6
  0
LINE
  5
14F
330
17
100
AcDbEntity
  8
0
100
AcDbLine
 10
27.96464466094067
 20
53.96464466094067
 30
1.6
 11
27.95
 21
54.0
 31
1.6
  0
LINE
  5
150
330
17
100
AcDbEntity
  8
0
100
AcDbLine
 10
27.95
 20
54.0
 30
1.6
 11
27.96464466094067
 21
54.03535533905933
 31
1.6
  0
LINE
  5
151
330
17
100
AcDbEntity
  8
0
100
AcDbLine
 10
27.96464466094067
 20
54.03535533905933
 30
1.6
 11
27.995010016715263
 21
54.049496966851024
 31
1.6
  0
LINE
  5
152
330
17
100
AcDbEntity
  8
0
100
AcDbLine
 10
27.995010016715263
 20
54.049496966851024
 30
1.6
 11
27.939047598508985
 21
54.60460302649102
 31
1.6
  0
LINE
  5
153
330
17
100
AcDbEntity
  8
0
100
AcDbLine
 10
27.939047598508985
 20
54.60460302649102
 30
1.6
 11
27.764240291153126
 21
55.16773220884688
 31
1.6
  0
LINE
  5
154
330
17
100
AcDbEntity
  8
0
100
AcDbLine
 10
27.764240291153126
 20
55.16773220884688
 30
1.6
 11
27.487641588220704
 21
55.6773240367793
 31
1.6
  0
LINE
  5
155
330
17
100
AcDbEntity
  8
0
100
AcDbLine
 10
27.487641588220704
 20
55.6773240367793
 30
1.6
 11
27.121315000000003
 21
56.121315
 31
1.6
  0
LINE
  5
156
330
17
100
AcDbEntity
  8
0
100
AcDbLine
 10
27.121315000000003
 20
56.121315
 30
1.6
 11
26.677324036779297
 21
56.487641588220704
 31
1.6
  0
LINE
  5
157
330
17
100
AcDbEntity
  8
0
100
AcDbLine
 10
26.677324036779297
 20
56.487641588220704
 30
1.6
 11
26.167732208846875
 21
56.76424029115313
 31
1.6
  0
LINE
  5
158
330
17
100
AcDbEntity
  8
0
100
AcDbLine
 10
26.167732208846875
 20
56.76424029115313
 30
1.6
 11
25.604603026491016
 21
56.939047598508985
 31
1.6
  0
LINE
  5
159
330
17
100
AcDbEntity
  8
0
100
AcDbLine
 10
25.604603026491016
 20
56.939047598508985
 30
1.6
 11
25.049496966851024
 21
56.99501001671526
 31
1.6
  0
LINE
  5
15A
330
17
100
AcDbEntity
  8
0
100
AcDbLine
 10
25.049496966851024
 20
56.99501001671526
 30
1.6
 11
25.03535533905933
 21
56.96464466094067
 31
1.6
  0
LINE
  5
15B
330
17
100
AcDbEntity
  8
0
100
AcDbLine
 10
25.03535533905933
 20
56.96464466094067
 30
1.6
 11
25.0
 21
56.95
 31
1.6
  0
LINE
  5
15C
330
17
100
AcDbEntity
  8
0
100
AcDbLine
 10
25.0
 20
56.95
 30
1.6
 11
24.96464466094067
 21
56.96464466094067
 31
1.6
  0
LINE
  5
15D
330
17
100
AcDbEntity
  8
0
100
AcDbLine
 10
24.96464466094067
 20
56.96464466094067
 30
1.6
 11
24.95
 21
57.0
 31
1.6
  0
LINE
  5
15E
330
17
100
AcDbEntity
  8
0
100
AcDbLine
 10
24.95
 20
57.0
 30
1.6
 11
3.05
 21
57.0
 31
1.6
  0
LINE
  5
15F
330
17
100
AcDbEntity
  8
0
100
AcDbLine
 10
3.05
 20
57.0
 30
1.6
 11
3.0353553390593273
 21
56.96464466094067
 31
1.6
  0
LINE
  5
160
330
17
100
AcDbEntity
  8
0
100
AcDbLine
 10
3.0353553390593273
 20
56.96464466094067
 30
1.6
 11
3.0
 21
56.95
 31
1.6
  0
LINE
  5
161
330
17
100
AcDbEntity
  8
0
100
AcDbLine
 10
3.0
 20
56.95
 30
1.6
 11
2.9646446609406727
 21
56.96464466094067
 31
1.6
  0
LINE
  5
162
330
17
100
AcDbEntity
  8
0
100
AcDbLine
 10
2.9646446609406727
 20
56.96464466094067
 30
1.6
 11
2.9502483026829736
 21
56.99753688948707
 31
1.6
  0
LINE
  5
163
330
17
100
AcDbEntity
  8
0
100
AcDbLine
 10
2.9502483026829736
 20
56.99753688948707
 30
1.6
 11
2.7034867846522186
 21
56.98532020298139
 31
1.6
  0
LINE
  5
164
330
17
100
AcDbEntity
  8
0
100
AcDbLine
 10
2.7034867846522186
 20
56.98532020298139
 30
1.6
 11
2.4119958246986153
 21
56.94182358479454
 31
1.6
  0
LINE
  5
165
330
17
100
AcDbEntity
  8
0
100
AcDbLine
 10
2.4119958246986153
 20
56.94182358479454
 30
1.6
 11
2.127494291063212
 21
56.8703249734548
 31
1.6
  0
LINE
  5
166
330
17
100
AcDbEntity
  8
0
100
AcDbLine
 10
2.127494291063212
 20
56.8703249734548
 30
1.6
 11
1.8519493546700327
 21
56.77163919697752
 31
1.6
  0
LINE
  5
167
330
17
100
AcDbEntity
  8
0
100
AcDbLine
 10
1.8519493546700327
 20
56.77163919697752
 30
1.6
 11
1.5873281864430988
 21
56.64658108337805
 31
1.6
  0
LINE
  5
168
330
17
100
AcDbEntity
  8
0
100
AcDbLine
 10
1.5873281864430988
 20
56.64658108337805
 30
1.6
 11
1.3355979573064334
 21
56.49596546067174
 31
1.6
  0
LINE
  5
169
330
17
100
AcDbEntity
  8
0
100
AcDbLine
 10
1.3355979573064334
 20
56.49596546067174
 30
1.6
 11
1.0987258381840592
 21
56.32060715687394
 31
1.6
  0
LINE
  5
16A
330
17
100
AcDbEntity
  8
0
100
AcDbLine
 10
1.0987258381840592
 20
56.32060715687394
 30
1.6
 11
0.8786789999999991
 21
56.121321
 31
1.6
  0
LINE
  5
16B
330
17
100
AcDbEntity
  8
0
100
AcDbLine
 10
0.8786789999999991
 20
56.121321
 30
1.6
 11
0.6793928431260575
 21
55.90127416181594
 31
1.6
  0
LINE
  5
16C
330
17
100
AcDbEntity
  8
0
100
AcDbLine
 10
0.6793928431260575
 20
55.90127416181594
 30
1.6
 11
0.5040345393282575
 21
55.66440204269357
 31
1.6
  0
LINE
  5
16D
330
17
100
AcDbEntity
  8
0
100
AcDbLine
 10
0.5040345393282575
 20
55.66440204269357
 30
1.6
 11
0.35341891662194824
 21
55.4126718135569
 31
1.6
  0
LINE
  5
16E
330
17
100
AcDbEntity
  8
0
100
AcDbLine
 10
0.35341891662194824
 20
55.4126718135569
 30
1.6
 11
0.22836080302247952
 21
55.14805064532997
 31
1.6
  0
LINE
  5
16F
330
17
100
AcDbEntity
  8
0
100
AcDbLine
 10
0.22836080302247952
 20
55.14805064532997
 30
1.6
 11
0.1296750265452008
 21
54.872505708936785
 31
1.6
  0
LINE
  5
170
330
17
100
AcDbEntity
  8
0
100
AcDbLine
 10
0.1296750265452008
 20
54.872505708936785
 30
1.6
 11
0.058176415205461574
 21
54.588004175301386
 31
1.6
  0
LINE
  5
171
330
17
100
AcDbEntity
  8
0
100
AcDbLine
 10
0.058176415205461574
 20
54.588004175301386
 30
1.6
 11
0.01467979701861144
 21
54.29651321534778
 31
1.6
  0
LINE
  5
172
330
17
100
AcDbEntity
  8
0
100
AcDbLine
 10
0.01467979701861144
 20
54.29651321534778
 30
1.6
 11
0.0024631105129283718
 21
54.04975169731702
 31
1.6
  0
LINE
  5
173
330
17
100
AcDbEntity
  8
0
100
AcDbLine
 10
0.0024631105129283718
 20
54.04975169731702
 30
1.6
 11
0.035355339059327376
 21
54.03535533905933
 31
1.6
  0
LINE
  5
174
330
17
100
AcDbEntity
  8
0
100
AcDbLine
 10
0.035355339059327376
 20
54.03535533905933
 30
1.6
 11
0.05
 21
54.0
 31
1.6
  0
LINE
  5
175
330
17
100
AcDbEntity
  8
0
100
AcDbLine
 10
0.05
 20
54.0
 30
1.6
 11
0.03535533905932737
 21
53.96464466094067
 31
1.6
  0
LINE
  5
176
330
17
100
AcDbEntity
  8
0
100
AcDbLine
 10
0.03535533905932737
 20
53.96464466094067
 30
1.6
 11
0.0
 21
53.95
 31
1.6
  0
LINE
  5
177
330
17
100
AcDbEntity
  8
0
100
AcDbLine
 10
0.0
 20
53.95
 30
1.6
 11
3.061616997868383e-18
 21
16.25
 31
1.6
  0
LINE
  5
178
330
17
100
AcDbEntity
  8
0
100
AcDbLine
 10
3.061616997868383e-18
 20
16.25
 30
1.6
 11
0.035355339059327376
 21
16.23535533905933
 31
1.6
  0
LINE
  5
179
330
17
100
AcDbEntity
  8
0
100
AcDbLine
 10
0.035355339059327376
 20
16.23535533905933
 30
1.6
 11
0.05
 21
16.2
 31
1.6
  0
LINE
  5
17A
330
17
100
AcDbEntity
  8
0
100
AcDbLine
 10
0.05
 20
16.2
 30
1.6
 11
0.03535533905932737
 21
16.16464466094067
 31
1.6
  0
LINE
  5
17B
330
17
100
AcDbEntity
  8
0
100
AcDbLine
 10
0.03535533905932737
 20
16.16464466094067
 30
1.6
 11
0.002463110512928481
 21
16.15024830268297
 31
1.6
  0
ENDSEC
  0
SECTION
  2
OBJECTS
  0
DICTIONARY
  5
A
330
0
100
AcDbDictionary
281
1
  3
ACAD_COLOR
350
B
  3
ACAD_GROUP
350
C
  3
ACAD_LAYOUT
350
D
  3
ACAD_MATERIAL
350
E
  3
ACAD_MLEADERSTYLE
350
F
  3
ACAD_MLINESTYLE
350
10
  3
ACAD_PLOTSETTINGS
350
11
  3
ACAD_PLOTSTYLENAME
350
12
  3
ACAD_SCALELIST
350
14
  3
ACAD_TABLESTYLE
350
15
  3
ACAD_VISUALSTYLE
350
16
  3
EZDXF_META
350
2D
  0
DICTIONARY
  5
B
330
A
100
AcDbDictionary
281
1
  0
DICTIONARY
  5
C
330
A
100
AcDbDictionary
281
1
  0
DICTIONARY
  5
D
330
A
100
AcDbDictionary
281
1
  3
Model
350
1A
  3
Layout1
350
1E
  0
DICTIONARY
  5
E
330
A
100
AcDbDictionary
281
1
  3
ByBlock
350
1F
  3
ByLayer
350
20
  3
Global
350
21
  0
DICTIONARY
  5
F
330
A
100
AcDbDictionary
281
1
  3
Standard
350
2C
  0
DICTIONARY
  5
10
330
A
100
AcDbDictionary
281
1
  3
Standard
350
22
  0
DICTIONARY
  5
11
330
A
100
AcDbDictionary
281
1
  0
ACDBDICTIONARYWDFLT
  5
12
330
A
100
AcDbDictionary
281
1
  3
Normal
350
13
100
AcDbDictionaryWithDefault
340
13
  0
ACDBPLACEHOLDER
  5
13
330
12
  0
DICTIONARY
  5
14
330
A
100
AcDbDictionary
281
1
  0
DICTIONARY
  5
15
330
A
100
AcDbDictionary
281
1
  0
DICTIONARY
  5
16
330
A
100
AcDbDictionary
281
1
  0
LAYOUT
  5
1A
330
D
100
AcDbPlotSettings
  1

  4
A3
  6

 40
7.5
 41
20.0
 42
7.5
 43
20.0
 44
420.0
 45
297.0
 46
0.0
 47
0.0
 48
0.0
 49
0.0
140
0.0
141
0.0
142
1.0
143
1.0
 70
1024
 72
1
 73
0
 74
5
  7

 75
16
 76
0
 77
2
 78
300
147
1.0
148
0.0
149
0.0
100
AcDbLayout
  1
Model
 70
1
 71
0
 10
0.0
 20
0.0
 11
420.0
 21
297.0
 12
0.0
 22
0.0
 32
0.0
 14
1e+20
 24
1e+20
 34
1e+20
 15
-1e+20
 25
-1e+20
 35
-1e+20
146
0.0
 13
0.0
 23
0.0
 33
0.0
 16
1.0
 26
0.0
 36
0.0
 17
0.0
 27
1.0
 37
0.0
 76
1
330
17
  0
LAYOUT
  5
1E
330
D
100
AcDbPlotSettings
  1

  4
A3
  6

 40
7.5
 41
20.0
 42
7.5
 43
20.0
 44
420.0
 45
297.0
 46
0.0
 47
0.0
 48
0.0
 49
0.0
140
0.0
141
0.0
142
1.0
143
1.0
 70
0
 72
1
 73
0
 74
5
  7

 75
16
 76
0
 77
2
 78
300
147
1.0
148
0.0
149
0.0
100
AcDbLayout
  1
Layout1
 70
1
 71
1
 10
0.0
 20
0.0
 11
420.0
 21
297.0
 12
0.0
 22
0.0
 32
0.0
 14
1e+20
 24
1e+20
 34
1e+20
 15
-1e+20
 25
-1e+20
 35
-1e+20
146
0.0
 13
0.0
 23
0.0
 33
0.0
 16
1.0
 26
0.0
 36
0.0
 17
0.0
 27
1.0
 37
0.0
 76
1
330
1B
  0
MATERIAL
  5
1F
102
{ACAD_REACTORS
330
E
102
}
330
E
100
AcDbMaterial
  1
ByBlock
  2

 70
0
 40
1.0
 71
1
 41
1.0
 91
-1023410177
 42
1.0
 72
1
  3

 73
1
 74
1
 75
1
 44
0.5
 73
0
 45
1.0
 46
1.0
 77
1
  4

 78
1
 79
1
170
1
 48
1.0
171
1
  6

172
1
173
1
174
1
140
1.0
141
1.0
175
1
  7

176
1
177
1
178
1
143
1.0
179
1
  8

270
1
271
1
272
1
145
1.0
146
1.0
273
1
  9

274
1
275
1
276
1
 42
1.0
 72
1
  3

 73
1
 74
1
 75
1
 94
63
  0
MATERIAL
  5
20
102
{ACAD_REACTORS
330
E
102
}
330
E
100
AcDbMaterial
  1
ByLayer
  2

 70
0
 40
1.0
 71
1
 41
1.0
 91
-1023410177
 42
1.0
 72
1
  3

 73
1
 74
1
 75
1
 44
0.5
 73
0
 45
1.0
 46
1.0
 77
1
  4

 78
1
 79
1
170
1
 48
1.0
171
1
  6

172
1
173
1
174
1
140
1.0
141
1.0
175
1
  7

176
1
177
1
178
1
143
1.0
179
1
  8

270
1
271
1
272
1
145
1.0
146
1.0
273
1
  9

274
1
275
1
276
1
 42
1.0
 72
1
  3

 73
1
 74
1
 75
1
 94
63
  0
MATERIAL
  5
21
102
{ACAD_REACTORS
330
E
102
}
330
E
100
AcDbMaterial
  1
Global
  2

 70
0
 40
1.0
 71
1
 41
1.0
 91
-1023410177
 42
1.0
 72
1
  3

 73
1
 74
1
 75
1
 44
0.5
 73
0
 45
1.0
 46
1.0
 77
1
  4

 78
1
 79
1
170
1
 48
1.0
171
1
  6

172
1
173
1
174
1
140
1.0
141
1.0
175
1
  7

176
1
177
1
178
1
143
1.0
179
1
  8

270
1
271
1
272
1
145
1.0
146
1.0
273
1
  9

274
1
275
1
276
1
 42
1.0
 72
1
  3

 73
1
 74
1
 75
1
 94
63
  0
MLINESTYLE
  5
22
102
{ACAD_REACTORS
330
10
102
}
330
10
100
AcDbMlineStyle
  2
Standard
 70
0
  3

 62
256
 51
90.0
 52
90.0
 71
2
 49
0.5
 62
256
  6
BYLAYER
 49
-0.5
 62
256
  6
BYLAYER
  0
MLEADERSTYLE
  5
2C
102
{ACAD_REACTORS
330
F
102
}
330
F
100
AcDbMLeaderStyle
179
2
170
2
171
1
172
0
 90
2
 40
0.0
 41
0.0
173
1
 91
-1056964608
 92
-2
290
1
 42
2.0
291
1
 43
8.0
  3
Standard
 44
4.0
300

342
29
174
1
175
1
176
0
178
1
 93
-1056964608
 45
4.0
292
0
297
0
 46
4.0
 94
-1056964608
 47
1.0
 49
1.0
140
1.0
294
1
141
0.0
177
0
142
1.0
295
0
296
0
143
3.75
271
0
272
9
273
9
  0
DICTIONARY
  5
2D
330
A
100
AcDbDictionary
280
1
281
1
  3
CREATED_BY_EZDXF
350
2E
  3
WRITTEN_BY_EZDXF
350
17F
  0
DICTIONARYVAR
  5
2E
330
2D
100
DictionaryVariables
280
0
  1
1.4.4 @ 2026-09-14T18:48:09.283796+00:00
  0
DICTIONARYVAR
  5
17F
330
2D
100
DictionaryVariables
280
0
  1
1.4.4 @ 2026-09-14T18:48:09.303178+00:00
  0
ENDSEC
  0
EOF
